<svg width="112" height="23" viewBox="0 0 112 23" fill="none" xmlns="http://www.w3.org/2000/svg">
    <path d="M25.6919 22.638H22.0532L19.4667 10.0409L12.8446 22.3401L6.22252 10.0409L3.63868 22.638H0L4.66156 0.356416L12.8446 15.5682L21.0303 0.356416L25.6919 22.638Z" fill="black"/>
    <path d="M27.5378 15.3593C27.5378 10.6953 30.7503 7.48753 35.0976 7.48753C36.7464 7.48753 38.3953 7.93305 39.6739 8.79625V12.1822C38.4805 11.2021 36.9169 10.6368 35.4119 10.6368C32.7135 10.6368 30.9208 12.4495 30.9208 15.3008C30.9208 18.1522 32.6549 19.8452 35.3533 19.8452C36.8876 19.8452 38.3953 19.3412 39.7591 18.2998V21.6857C38.4246 22.5461 36.7464 22.9916 35.0976 22.9916C30.5212 22.9916 27.5378 19.9008 27.5378 15.3565" fill="black"/>
    <path d="M42.9982 11.6448C42.9982 4.81162 47.6305 0 54.1673 0C56.61 0 58.9994 0.654358 60.904 1.90182V5.76392C59.0553 4.24915 56.642 3.38874 54.3112 3.38874C49.7642 3.38874 46.6103 6.7747 46.6103 11.6782C46.6103 16.5817 49.623 19.6113 54.2845 19.6113C56.642 19.6113 59.1166 18.7508 60.9919 17.2361V21.0982C59.0873 22.3456 56.6713 23 54.2286 23C47.4654 23 43.0036 18.4835 43.0036 11.6504" fill="black"/>
    <path d="M75.1124 15.2396C75.1124 12.4774 73.4369 10.5755 71.0209 10.5755C68.6049 10.5755 66.9294 12.4774 66.9294 15.2396C66.9294 18.0018 68.6049 19.9036 71.0209 19.9036C73.4369 19.9036 75.1124 18.0018 75.1124 15.2396ZM75.3681 7.9609H78.4661V22.638H75.3681V20.558C74.3452 22.134 72.6964 22.9944 70.5947 22.9944C66.5298 22.9944 63.5464 19.7254 63.5464 15.3008C63.5464 10.8763 66.5591 7.48753 70.6799 7.48753C72.6697 7.48753 74.3745 8.37857 75.3681 9.86271V7.9609Z" fill="black"/>
    <path d="M95.3169 13.5466V22.638H91.9926V14.1703C91.9926 11.9121 90.9404 10.5755 89.1797 10.5755C86.9048 10.5755 85.541 12.5665 85.541 15.9218V22.6352H82.2166V7.9609H85.3705V9.86271C86.3081 8.31731 87.8425 7.48475 89.8323 7.48475C93.1007 7.48475 95.3169 9.92119 95.3169 13.5466Z" fill="black"/>
    <path d="M112 13.5466V22.638H108.676V14.1703C108.676 11.9121 107.623 10.5755 105.863 10.5755C103.588 10.5755 102.224 12.5665 102.224 15.9218V22.6352H98.8997V7.9609H102.054V9.86271C102.991 8.31731 104.526 7.48475 106.515 7.48475C109.784 7.48475 112 9.92119 112 13.5466Z" fill="black"/>
</svg>
