<svg width="58" height="57" viewBox="0 0 58 57" fill="none" xmlns="http://www.w3.org/2000/svg">
    <g clip-path="url(#clip0_538_1339)">
    <path fill-rule="evenodd" clip-rule="evenodd" d="M22.065 21.4592C22.3109 21.2133 22.5675 20.9834 22.8401 20.7642L18.312 16.2361L16.9006 17.6475L21.402 22.1489C21.6052 21.9083 21.8244 21.6784 22.065 21.4592Z" fill="black" stroke="black" stroke-width="0.3" stroke-miterlimit="3.17"/>
    <path fill-rule="evenodd" clip-rule="evenodd" d="M37.2638 35.1934C37.0446 35.4553 36.8041 35.7066 36.5475 35.9472C36.3229 36.1717 36.0823 36.3855 35.8364 36.5887L39.8567 40.6089L41.2681 39.1976L37.2638 35.1934Z" fill="black" stroke="black" stroke-width="0.3" stroke-miterlimit="3.17"/>
    <path fill-rule="evenodd" clip-rule="evenodd" d="M18.3707 11.1733C20.1509 12.9536 20.1509 15.8405 18.3707 17.6261C16.5904 19.4063 13.7035 19.4063 11.9179 17.6261C10.1377 15.8458 10.1377 12.9589 11.9179 11.1733C13.6982 9.39307 16.5851 9.39307 18.3707 11.1733Z" fill="black" stroke="black" stroke-width="0.29" stroke-linecap="round" stroke-linejoin="round"/>
    <path fill-rule="evenodd" clip-rule="evenodd" d="M47.0845 46.9333C47.0845 46.9333 47.0898 46.9387 47.0952 46.944C47.2609 47.1097 47.5335 47.1151 47.6993 46.944C47.865 46.7783 47.865 46.511 47.6993 46.3399C47.6993 46.3399 47.6939 46.3346 47.6886 46.3292L47.0898 46.928L47.0845 46.9333Z" fill="black" stroke="black" stroke-width="0.29" stroke-linecap="round" stroke-linejoin="round"/>
    <path fill-rule="evenodd" clip-rule="evenodd" d="M46.4001 46.944C46.4162 46.9975 46.4376 47.0403 46.475 47.0777C46.6728 47.2755 47.1379 47.1365 47.5121 46.7676C47.8864 46.3987 48.0254 45.9336 47.8222 45.7305C47.7848 45.6931 47.742 45.6717 47.6886 45.6556L46.4001 46.944Z" fill="black" stroke="black" stroke-width="0.29" stroke-linecap="round" stroke-linejoin="round"/>
    <path fill-rule="evenodd" clip-rule="evenodd" d="M39.6108 40.24L40.9901 38.8607L47.6086 45.2707L46.0208 46.8585L39.6108 40.24Z" fill="black" stroke="black" stroke-width="0.29" stroke-miterlimit="3.17"/>
    <path fill-rule="evenodd" clip-rule="evenodd" d="M39.2793 39.8764C39.2793 39.8764 39.7391 39.5076 40.001 39.251C40.263 38.9943 40.6265 38.5292 40.6265 38.5292C40.7388 38.3849 40.9366 38.3689 41.0649 38.4972C41.1932 38.6255 41.1932 38.8393 41.0649 38.9676C41.0649 38.9676 40.7014 39.406 40.4287 39.6786C40.1561 39.9513 39.7177 40.3148 39.7177 40.3148C39.5787 40.4378 39.3756 40.4431 39.2472 40.3148C39.1189 40.1865 39.1457 40.0048 39.2793 39.8764Z" fill="black" stroke="black" stroke-width="0.29" stroke-miterlimit="3.17"/>
    <path fill-rule="evenodd" clip-rule="evenodd" d="M46.0313 46.6339C46.0313 46.6339 46.491 46.265 46.753 46.0084C47.015 45.7518 47.3785 45.2867 47.3785 45.2867C47.4908 45.1423 47.6886 45.1263 47.8169 45.2546C47.9452 45.3829 47.9452 45.5968 47.8169 45.7251C47.8169 45.7251 47.4533 46.1634 47.1807 46.4361C46.908 46.7087 46.4697 47.0723 46.4697 47.0723C46.3307 47.1952 46.1275 47.2006 45.9992 47.0723C45.8709 46.944 45.8976 46.7622 46.0313 46.6339Z" fill="black" stroke="black" stroke-width="0.29" stroke-miterlimit="3.17"/>
    <path d="M17.7932 10.6868C17.558 11.0289 17.2746 11.1145 17.0127 11.045C17.0287 11.7186 16.5797 12.1249 15.9649 12.0661C16.0023 12.7076 15.5265 13.1353 14.8903 13.0177C14.8903 13.0177 14.9972 13.4667 14.6016 13.8623C14.206 14.258 13.7569 14.151 13.7569 14.151C13.8745 14.7819 13.4468 15.263 12.8053 15.2256C12.8641 15.8457 12.4578 16.2895 11.7842 16.2734C11.8484 16.5354 11.7682 16.8187 11.426 17.054" fill="black"/>
    <path d="M17.7932 10.6868C17.558 11.0289 17.2746 11.1145 17.0127 11.045C17.0287 11.7186 16.5797 12.1249 15.9649 12.0661C16.0023 12.7076 15.5265 13.1353 14.8903 13.0177C14.8903 13.0177 14.9972 13.4667 14.6016 13.8623C14.206 14.258 13.7569 14.151 13.7569 14.151C13.8745 14.7819 13.4468 15.263 12.8053 15.2256C12.8641 15.8457 12.4578 16.2895 11.7842 16.2734C11.8484 16.5354 11.7682 16.8187 11.426 17.054" stroke="white" stroke-width="0.29" stroke-linecap="round" stroke-linejoin="round"/>
    <path d="M18.8572 11.7507C18.515 11.986 18.4295 12.2693 18.499 12.5313C17.8254 12.5152 17.4191 12.9643 17.4779 13.5791C16.8364 13.5417 16.4087 14.0175 16.5263 14.6537C16.5263 14.6537 16.0772 14.5467 15.6816 14.9423C15.286 15.338 15.3929 15.787 15.3929 15.787C14.7621 15.6694 14.2809 16.0971 14.3184 16.7386C13.6982 16.6798 13.2545 17.0861 13.2705 17.7597C13.0086 17.6956 12.7252 17.7758 12.49 18.1179" fill="black"/>
    <path d="M18.8572 11.7507C18.515 11.986 18.4295 12.2693 18.499 12.5313C17.8254 12.5152 17.4191 12.9643 17.4779 13.5791C16.8364 13.5417 16.4087 14.0175 16.5263 14.6537C16.5263 14.6537 16.0772 14.5467 15.6816 14.9423C15.286 15.338 15.3929 15.787 15.3929 15.787C14.7621 15.6694 14.2809 16.0971 14.3184 16.7386C13.6982 16.6798 13.2545 17.0861 13.2705 17.7597C13.0086 17.6956 12.7252 17.7758 12.49 18.1179" stroke="white" stroke-width="0.29" stroke-linecap="round" stroke-linejoin="round"/>
    <path d="M11.7949 16.2682C11.0679 14.9904 10.3301 13.0231 11.9232 11.1733C10.9556 12.2158 11.966 14.258 12.816 15.2203" fill="black"/>
    <path d="M11.7949 16.2682C11.0679 14.9904 10.3301 13.0231 11.9232 11.1733C10.9556 12.2158 11.966 14.258 12.816 15.2203" stroke="white" stroke-width="0.29" stroke-linecap="round" stroke-linejoin="round"/>
    <path d="M11.9233 11.1733C11.6613 11.9271 13.217 13.5203 13.7677 14.1458L11.9233 11.1733Z" fill="black"/>
    <path d="M11.9233 11.1733C11.6613 11.9271 13.217 13.5203 13.7677 14.1458" stroke="white" stroke-width="0.29" stroke-linecap="round" stroke-linejoin="round"/>
    <path d="M11.9233 11.1733C12.6771 10.9113 14.2703 12.467 14.8958 13.0177L11.9233 11.1733Z" fill="black"/>
    <path d="M11.9233 11.1733C12.6771 10.9113 14.2703 12.467 14.8958 13.0177" stroke="white" stroke-width="0.29" stroke-linecap="round" stroke-linejoin="round"/>
    <path d="M17.0182 11.0451C15.7404 10.318 13.7731 9.58023 11.9233 11.1734C12.9658 10.2057 15.008 11.2161 15.9703 12.0662" fill="black"/>
    <path d="M17.0182 11.0451C15.7404 10.318 13.7731 9.58023 11.9233 11.1734C12.9658 10.2057 15.008 11.2161 15.9703 12.0662" stroke="white" stroke-width="0.29" stroke-linecap="round" stroke-linejoin="round"/>
    <path d="M13.2759 17.749C14.5536 18.4761 16.521 19.2138 18.3707 17.6207C17.3282 18.5883 15.286 17.5779 14.3237 16.7279" fill="black"/>
    <path d="M13.2759 17.749C14.5536 18.4761 16.521 19.2138 18.3707 17.6207C17.3282 18.5883 15.286 17.5779 14.3237 16.7279" stroke="white" stroke-width="0.29" stroke-linecap="round" stroke-linejoin="round"/>
    <path d="M18.3706 17.6208C17.6168 17.8827 16.0237 16.327 15.3982 15.7764L18.3706 17.6208Z" fill="black"/>
    <path d="M18.3706 17.6208C17.6168 17.8827 16.0237 16.327 15.3982 15.7764" stroke="white" stroke-width="0.29" stroke-linecap="round" stroke-linejoin="round"/>
    <path d="M18.3708 17.6207C18.6327 16.8669 17.077 15.2738 16.5264 14.6483L18.3708 17.6207Z" fill="black"/>
    <path d="M18.3708 17.6207C18.6327 16.8669 17.077 15.2738 16.5264 14.6483" stroke="white" stroke-width="0.29" stroke-linecap="round" stroke-linejoin="round"/>
    <path d="M18.4991 12.5259C19.2262 13.8036 19.964 15.771 18.3708 17.6207C19.3385 16.5782 18.3281 14.536 17.478 13.5737" fill="black"/>
    <path d="M18.4991 12.5259C19.2262 13.8036 19.964 15.771 18.3708 17.6207C19.3385 16.5782 18.3281 14.536 17.478 13.5737" stroke="white" stroke-width="0.29" stroke-linecap="round" stroke-linejoin="round"/>
    <path fill-rule="evenodd" clip-rule="evenodd" d="M11.4956 10.9649C11.4582 10.997 11.4208 11.0344 11.3887 11.0772C11.3192 11.168 11.2711 11.2803 11.2604 11.4193C11.2497 11.5476 11.2283 11.6706 11.1695 11.7828C11.1054 11.9058 11.1054 12.0502 11.0947 12.1891C11.0947 12.1891 11.0947 12.1891 11.0947 12.1945C11.084 12.2212 11.0947 12.248 11.1214 12.2586C11.1321 12.2586 11.1481 12.2586 11.1588 12.248C11.1749 12.2373 11.6293 11.9807 12.1692 11.4407C12.7092 10.9007 12.9658 10.4517 12.9765 10.4356C12.9765 10.4356 12.9765 10.4356 12.9765 10.4303C12.9818 10.4196 12.9872 10.4089 12.9872 10.3982C12.9872 10.3982 12.9872 10.3929 12.9872 10.3875C12.9765 10.3608 12.9498 10.3501 12.923 10.3608C12.923 10.3608 12.923 10.3608 12.9177 10.3608C12.7733 10.3715 12.6343 10.3715 12.5114 10.4356C12.3991 10.4944 12.2762 10.5158 12.1532 10.5265C11.8859 10.5479 11.7148 10.7136 11.6079 10.8794C11.6079 10.8794 11.6079 10.8847 11.5972 10.8901C11.5598 10.9168 11.517 10.9435 11.4796 10.9809L11.4956 10.9649Z" fill="black" stroke="black" stroke-width="0.26" stroke-miterlimit="10"/>
    <path d="M12.9605 10.3928C12.8108 10.4035 12.6611 10.4088 12.5488 10.4676C12.4259 10.5318 12.2976 10.5532 12.1692 10.5639C11.9126 10.5853 11.7523 10.7456 11.6507 10.906M11.1375 12.2105C11.1481 12.0608 11.1535 11.9111 11.2123 11.7988C11.2764 11.6759 11.2978 11.5476 11.3085 11.4192C11.3299 11.1626 11.4903 11.0023 11.6507 10.9007M11.1375 12.2051C11.1375 12.2051 11.6026 11.9432 12.1479 11.3979C12.6932 10.8526 12.9551 10.3875 12.9551 10.3875" fill="black"/>
    <path d="M12.9605 10.3928C12.8108 10.4035 12.6611 10.4088 12.5488 10.4676C12.4259 10.5318 12.2976 10.5532 12.1692 10.5639C11.9126 10.5853 11.7523 10.7456 11.6507 10.906M11.1375 12.2105C11.1481 12.0608 11.1535 11.9111 11.2123 11.7988C11.2764 11.6759 11.2978 11.5476 11.3085 11.4192C11.3299 11.1626 11.4903 11.0023 11.6507 10.9007M11.1375 12.2051C11.1375 12.2051 11.6026 11.9432 12.1479 11.3979C12.6932 10.8526 12.9551 10.3875 12.9551 10.3875" stroke="black" stroke-width="0.29" stroke-linecap="round" stroke-linejoin="round"/>
    <path fill-rule="evenodd" clip-rule="evenodd" d="M11.656 10.2591C11.8324 10.4355 11.8324 10.7242 11.656 10.906C11.4795 11.0877 11.1909 11.0824 11.0091 10.906C10.8273 10.7295 10.8327 10.4409 11.0091 10.2591C11.1855 10.0773 11.4742 10.0827 11.656 10.2591Z" fill="black" stroke="black" stroke-width="0.29" stroke-linecap="round" stroke-linejoin="round"/>
    <path fill-rule="evenodd" clip-rule="evenodd" d="M36.5529 21.4592C36.772 21.657 36.9699 21.8709 37.1623 22.0901L41.5996 17.6528L40.1882 16.2415L35.6921 20.7375C35.9862 20.9674 36.2749 21.208 36.5529 21.4592Z" fill="black" stroke="black" stroke-width="0.3" stroke-miterlimit="3.17"/>
    <path fill-rule="evenodd" clip-rule="evenodd" d="M22.0648 35.9471C21.7868 35.6905 21.5302 35.4178 21.2949 35.1292L17.2266 39.1975L18.6379 40.6089L22.7277 36.5191C22.4978 36.3374 22.2786 36.1449 22.0594 35.9471H22.0648Z" fill="black" stroke="black" stroke-width="0.3" stroke-miterlimit="3.17"/>
    <path fill-rule="evenodd" clip-rule="evenodd" d="M46.5821 17.6207C44.8019 19.4009 41.915 19.4009 40.1294 17.6207C38.3491 15.8404 38.3491 12.9535 40.1294 11.1679C41.9096 9.3877 44.7965 9.3877 46.5821 11.1679C48.3624 12.9482 48.3624 15.8351 46.5821 17.6207Z" fill="black" stroke="black" stroke-width="0.29" stroke-linecap="round" stroke-linejoin="round"/>
    <path fill-rule="evenodd" clip-rule="evenodd" d="M10.8167 46.3345C10.8167 46.3345 10.8113 46.3398 10.806 46.3452C10.6403 46.5109 10.6349 46.7835 10.806 46.9493C10.9717 47.115 11.239 47.115 11.4101 46.9493C11.4101 46.9493 11.4155 46.9439 11.4208 46.9386L10.822 46.3398L10.8167 46.3345Z" fill="black" stroke="black" stroke-width="0.29" stroke-linecap="round" stroke-linejoin="round"/>
    <path fill-rule="evenodd" clip-rule="evenodd" d="M10.8113 45.6503C10.7579 45.6663 10.7151 45.6877 10.6777 45.7251C10.4799 45.9229 10.6189 46.388 10.9878 46.7623C11.3566 47.1365 11.8218 47.2755 12.0249 47.0723C12.0623 47.0349 12.0837 46.9921 12.0998 46.9387L10.8113 45.6503Z" fill="black" stroke="black" stroke-width="0.29" stroke-linecap="round" stroke-linejoin="round"/>
    <path fill-rule="evenodd" clip-rule="evenodd" d="M17.5154 38.8607L18.8947 40.24L12.4848 46.8585L10.897 45.2707L17.5154 38.8607Z" fill="black" stroke="black" stroke-width="0.29" stroke-miterlimit="3.17"/>
    <path fill-rule="evenodd" clip-rule="evenodd" d="M17.8734 38.5293C17.8734 38.5293 18.2423 38.9891 18.4989 39.251C18.7555 39.513 19.2206 39.8765 19.2206 39.8765C19.365 39.9888 19.381 40.1866 19.2527 40.3149C19.1244 40.4432 18.9106 40.4432 18.7823 40.3149C18.7823 40.3149 18.3439 39.9514 18.0712 39.6787C17.7986 39.4061 17.4351 38.9677 17.4351 38.9677C17.3121 38.8287 17.3067 38.6256 17.4351 38.4972C17.5634 38.3689 17.7451 38.3957 17.8734 38.5293Z" fill="black" stroke="black" stroke-width="0.29" stroke-miterlimit="3.17"/>
    <path fill-rule="evenodd" clip-rule="evenodd" d="M11.1215 45.2814C11.1215 45.2814 11.4904 45.7412 11.747 46.0031C12.0036 46.2651 12.4687 46.6286 12.4687 46.6286C12.613 46.7409 12.6291 46.9387 12.5008 47.067C12.3725 47.1953 12.1586 47.1953 12.0303 47.067C12.0303 47.067 11.5919 46.7035 11.3193 46.4308C11.0466 46.1582 10.6831 45.7198 10.6831 45.7198C10.5601 45.5808 10.5548 45.3776 10.6831 45.2493C10.8114 45.121 10.9932 45.1477 11.1215 45.2814Z" fill="black" stroke="black" stroke-width="0.29" stroke-miterlimit="3.17"/>
    <path d="M47.0686 17.0433C46.7265 16.8081 46.6409 16.5248 46.7104 16.2628C46.0368 16.2788 45.6305 15.8298 45.6893 15.215C45.0478 15.2524 44.6201 14.7766 44.7377 14.1404C44.7377 14.1404 44.2886 14.2473 43.893 13.8517C43.4974 13.4561 43.6043 13.007 43.6043 13.007C42.9735 13.1247 42.4924 12.697 42.5298 12.0554C41.9096 12.1142 41.4659 11.7079 41.4819 11.0343C41.22 11.0985 40.9366 11.0183 40.7014 10.6761" fill="black"/>
    <path d="M47.0686 17.0433C46.7265 16.8081 46.6409 16.5248 46.7104 16.2628C46.0368 16.2788 45.6305 15.8298 45.6893 15.215C45.0478 15.2524 44.6201 14.7766 44.7377 14.1404C44.7377 14.1404 44.2886 14.2473 43.893 13.8517C43.4974 13.4561 43.6043 13.007 43.6043 13.007C42.9735 13.1247 42.4924 12.697 42.5298 12.0554C41.9096 12.1142 41.4659 11.7079 41.4819 11.0343C41.22 11.0985 40.9366 11.0183 40.7014 10.6761" stroke="white" stroke-width="0.29" stroke-linecap="round" stroke-linejoin="round"/>
    <path d="M46.0046 18.1072C45.7694 17.765 45.4861 17.6795 45.2241 17.749C45.2402 17.0754 44.7911 16.6691 44.1763 16.7279C44.2137 16.0864 43.7379 15.6587 43.1017 15.7763C43.1017 15.7763 43.2086 15.3272 42.813 14.9316C42.4174 14.536 41.9683 14.6429 41.9683 14.6429C42.086 14.0121 41.6583 13.5309 41.0167 13.5684C41.0756 12.9482 40.6692 12.5045 39.9956 12.5205C40.0598 12.2586 39.9796 11.9752 39.6375 11.74" fill="black"/>
    <path d="M46.0046 18.1072C45.7694 17.765 45.4861 17.6795 45.2241 17.749C45.2402 17.0754 44.7911 16.6691 44.1763 16.7279C44.2137 16.0864 43.7379 15.6587 43.1017 15.7763C43.1017 15.7763 43.2086 15.3272 42.813 14.9316C42.4174 14.536 41.9683 14.6429 41.9683 14.6429C42.086 14.0121 41.6583 13.5309 41.0167 13.5684C41.0756 12.9482 40.6692 12.5045 39.9956 12.5205C40.0598 12.2586 39.9796 11.9752 39.6375 11.74" stroke="white" stroke-width="0.29" stroke-linecap="round" stroke-linejoin="round"/>
    <path d="M41.4819 11.0451C42.7596 10.318 44.727 9.58023 46.5768 11.1734C45.5343 10.2057 43.4921 11.2161 42.5298 12.0662" fill="black"/>
    <path d="M41.4819 11.0451C42.7596 10.318 44.727 9.58023 46.5768 11.1734C45.5343 10.2057 43.4921 11.2161 42.5298 12.0662" stroke="white" stroke-width="0.29" stroke-linecap="round" stroke-linejoin="round"/>
    <path d="M46.5767 11.1733C45.8229 10.9113 44.2297 12.467 43.6042 13.0177L46.5767 11.1733Z" fill="black"/>
    <path d="M46.5767 11.1733C45.8229 10.9113 44.2297 12.467 43.6042 13.0177" stroke="white" stroke-width="0.29" stroke-linecap="round" stroke-linejoin="round"/>
    <path d="M46.5766 11.1733C46.8385 11.9271 45.2828 13.5203 44.7322 14.1458L46.5766 11.1733Z" fill="black"/>
    <path d="M46.5766 11.1733C46.8385 11.9271 45.2828 13.5203 44.7322 14.1458" stroke="white" stroke-width="0.29" stroke-linecap="round" stroke-linejoin="round"/>
    <path d="M46.7103 16.2682C47.4374 14.9904 48.1751 13.0231 46.582 11.1733C47.5497 12.2158 46.5392 14.258 45.6892 15.2203" fill="black"/>
    <path d="M46.7103 16.2682C47.4374 14.9904 48.1751 13.0231 46.582 11.1733C47.5497 12.2158 46.5392 14.258 45.6892 15.2203" stroke="white" stroke-width="0.29" stroke-linecap="round" stroke-linejoin="round"/>
    <path d="M40.001 12.5259C39.2739 13.8036 38.5362 15.771 40.1293 17.6207C39.1617 16.5782 40.1721 14.536 41.0221 13.5737" fill="black"/>
    <path d="M40.001 12.5259C39.2739 13.8036 38.5362 15.771 40.1293 17.6207C39.1617 16.5782 40.1721 14.536 41.0221 13.5737" stroke="white" stroke-width="0.29" stroke-linecap="round" stroke-linejoin="round"/>
    <path d="M40.1347 17.6207C39.8727 16.8669 41.4285 15.2738 41.9791 14.6483L40.1347 17.6207Z" fill="black"/>
    <path d="M40.1347 17.6207C39.8727 16.8669 41.4285 15.2738 41.9791 14.6483" stroke="white" stroke-width="0.29" stroke-linecap="round" stroke-linejoin="round"/>
    <path d="M40.1294 17.6208C40.8832 17.8827 42.4763 16.327 43.1018 15.7764L40.1294 17.6208Z" fill="black"/>
    <path d="M40.1294 17.6208C40.8832 17.8827 42.4763 16.327 43.1018 15.7764" stroke="white" stroke-width="0.29" stroke-linecap="round" stroke-linejoin="round"/>
    <path d="M45.2242 17.749C43.9465 18.4761 41.9791 19.2138 40.1294 17.6207C41.1719 18.5883 43.2141 17.5779 44.1764 16.7279" fill="black"/>
    <path d="M45.2242 17.749C43.9465 18.4761 41.9791 19.2138 40.1294 17.6207C41.1719 18.5883 43.2141 17.5779 44.1764 16.7279" stroke="white" stroke-width="0.29" stroke-linecap="round" stroke-linejoin="round"/>
    <path fill-rule="evenodd" clip-rule="evenodd" d="M46.7906 10.7456C46.7585 10.7082 46.7211 10.6708 46.6783 10.6387C46.5874 10.5692 46.4752 10.5211 46.3362 10.5104C46.2079 10.4997 46.0849 10.4783 45.9726 10.4195C45.8497 10.3554 45.7053 10.3554 45.5663 10.3447C45.5663 10.3447 45.5663 10.3447 45.561 10.3447C45.5343 10.334 45.5075 10.3447 45.4968 10.3714C45.4968 10.3821 45.4968 10.3981 45.5075 10.4088C45.5182 10.4249 45.7748 10.8793 46.3148 11.4192C46.8547 11.9592 47.3038 12.2158 47.3198 12.2265C47.3198 12.2265 47.3198 12.2265 47.3252 12.2265C47.3359 12.2318 47.3466 12.2372 47.3573 12.2372C47.3573 12.2372 47.3626 12.2372 47.368 12.2372C47.3947 12.2265 47.4054 12.1998 47.3947 12.173C47.3947 12.173 47.3947 12.173 47.3947 12.1677C47.384 12.0233 47.384 11.8843 47.3198 11.7614C47.261 11.6491 47.2397 11.5262 47.229 11.4032C47.2076 11.1359 47.0418 10.9648 46.8761 10.8579C46.8761 10.8579 46.8708 10.8579 46.8654 10.8472C46.8387 10.8098 46.812 10.767 46.7745 10.7296L46.7906 10.7456Z" fill="black" stroke="black" stroke-width="0.26" stroke-miterlimit="10"/>
    <path d="M47.3572 12.2105C47.3465 12.0608 47.3412 11.9111 47.2824 11.7988C47.2182 11.6759 47.1968 11.5476 47.1861 11.4192C47.1648 11.1626 47.0044 11.0023 46.844 10.9007M45.5396 10.3875C45.6892 10.3981 45.8389 10.4035 45.9512 10.4623C46.0742 10.5264 46.2025 10.5478 46.3308 10.5585C46.5874 10.5799 46.7478 10.7403 46.8493 10.9007M45.5449 10.3875C45.5449 10.3875 45.8069 10.8526 46.3522 11.3979C46.8975 11.9432 47.3626 12.2051 47.3626 12.2051" fill="black"/>
    <path d="M47.3572 12.2105C47.3465 12.0608 47.3412 11.9111 47.2824 11.7988C47.2182 11.6759 47.1968 11.5476 47.1861 11.4192C47.1648 11.1626 47.0044 11.0023 46.844 10.9007M45.5396 10.3875C45.6892 10.3981 45.8389 10.4035 45.9512 10.4623C46.0742 10.5264 46.2025 10.5478 46.3308 10.5585C46.5874 10.5799 46.7478 10.7403 46.8493 10.9007M45.5449 10.3875C45.5449 10.3875 45.8069 10.8526 46.3522 11.3979C46.8975 11.9432 47.3626 12.2051 47.3626 12.2051" stroke="black" stroke-width="0.29" stroke-linecap="round" stroke-linejoin="round"/>
    <path fill-rule="evenodd" clip-rule="evenodd" d="M47.4963 10.906C47.3199 11.0824 47.0312 11.0824 46.8494 10.906C46.6676 10.7295 46.673 10.4409 46.8494 10.2591C47.0258 10.0773 47.3145 10.0827 47.4963 10.2591C47.6781 10.4355 47.6727 10.7242 47.4963 10.906Z" fill="black" stroke="black" stroke-width="0.29" stroke-linecap="round" stroke-linejoin="round"/>
    <path d="M38.1244 23.357C38.3062 23.6778 38.4665 24.0146 38.6055 24.3568L56.5844 19.9355V37.0698L38.536 32.6272C38.4131 32.9747 38.2634 33.3115 38.0977 33.6376L57.675 38.4544V18.5509L38.1297 23.357H38.1244Z" fill="black" stroke="black" stroke-width="0.3" stroke-miterlimit="3.17"/>
    <path d="M25.1176 19.1764L20.6857 1.16546H37.8199L33.388 19.1764C33.7248 19.3315 34.0562 19.5025 34.377 19.6897L39.2045 0.0802002H19.301L24.1232 19.679C24.444 19.4918 24.7754 19.3261 25.1176 19.1764Z" fill="black" stroke="black" stroke-width="0.3" stroke-miterlimit="3.17"/>
    <path d="M19.9263 32.6378L1.91533 37.0698V19.9355L19.9851 24.3781C20.1081 24.0253 20.2524 23.6885 20.4235 23.3677L0.830078 18.5509V38.4544L20.4075 33.6376C20.2257 33.3168 20.0653 32.98 19.9263 32.6378Z" fill="black" stroke="black" stroke-width="0.3" stroke-miterlimit="3.17"/>
    <path d="M33.388 37.8183L37.8199 55.84H20.6857L25.1229 37.8023C24.7861 37.6472 24.4547 37.4762 24.1339 37.2837L19.301 56.9252H39.2045L34.3823 37.3211C34.0616 37.5029 33.7301 37.6686 33.388 37.8236V37.8183Z" fill="black" stroke="black" stroke-width="0.3" stroke-miterlimit="3.17"/>
    <path fill-rule="evenodd" clip-rule="evenodd" d="M29.3089 18.46C29.9664 18.46 30.608 18.5295 31.2334 18.6525V6.17472L29.2554 4.09509L27.2773 6.17472V18.6846C27.951 18.5402 28.6353 18.4654 29.3142 18.4654L29.3089 18.46Z" fill="black" stroke="black" stroke-width="0.3" stroke-linecap="round" stroke-linejoin="round"/>
    <path fill-rule="evenodd" clip-rule="evenodd" d="M29.3088 38.9463C28.6085 38.9463 27.9295 38.8714 27.272 38.7324V45.8588H31.2334V38.7485C30.5919 38.8768 29.945 38.9463 29.3088 38.9463Z" fill="black" stroke="black" stroke-width="0.3" stroke-linecap="round" stroke-linejoin="round"/>
    <path fill-rule="evenodd" clip-rule="evenodd" d="M28.0044 45.5273H30.501L30.2872 50.7077H28.2236L28.0097 45.5273H28.0044Z" fill="black" stroke="black" stroke-width="0.29" stroke-linecap="round" stroke-linejoin="round"/>
    <path fill-rule="evenodd" clip-rule="evenodd" d="M30.4689 45.8534C30.4689 45.8534 30.4475 45.8534 30.4422 45.8534L28.0525 46.7034V46.8692H28.0632L30.4796 46.0084V45.8534C30.4796 45.8534 30.4796 45.8534 30.4689 45.8534ZM30.4475 46.7355C30.4475 46.7355 30.4422 46.7355 30.4368 46.7355L28.0846 47.5748V47.7406L30.4368 46.9066V46.7355H30.4422H30.4475ZM30.4101 47.6283L28.122 48.4409V48.6066L30.3994 47.7994V47.6283H30.4101ZM30.378 48.5211L28.1648 49.307V49.4727L30.3727 48.6922V48.5211H30.378ZM30.3406 49.4139L28.2022 50.1784V50.3441L30.3353 49.585V49.4139H30.3406Z" fill="black" stroke="white" stroke-width="0.26" stroke-miterlimit="10"/>
    <path d="M29.25 39.1227C29.2821 41.3306 29.2821 43.6027 29.25 45.9015V39.1227Z" fill="black"/>
    <path d="M29.25 39.1227C29.2821 41.3306 29.2821 43.6027 29.25 45.9015" stroke="white" stroke-width="0.3" stroke-linecap="round" stroke-linejoin="round"/>
    <path d="M29.25 8.09399C29.2821 11.5048 29.2821 14.9103 29.25 18.2836" stroke="white" stroke-width="0.3" stroke-linecap="round" stroke-linejoin="round"/>
    <path fill-rule="evenodd" clip-rule="evenodd" d="M24.8074 44.041V45.6395C24.8074 45.693 24.8501 45.7357 24.9036 45.7357H33.5963C33.6498 45.7357 33.6926 45.693 33.6926 45.6395V44.041L29.25 44.7574L24.8074 44.041Z" fill="black" stroke="black" stroke-width="0.29" stroke-linecap="round" stroke-linejoin="round"/>
    <path fill-rule="evenodd" clip-rule="evenodd" d="M27.1436 50.4457C27.1436 50.4457 27.7423 52.413 29.2553 52.413C30.7682 52.413 31.367 50.4457 31.367 50.4457C31.367 50.4457 30.6827 50.6702 29.2553 50.6702C27.8279 50.6702 27.1436 50.4457 27.1436 50.4457Z" fill="black" stroke="black" stroke-width="0.29" stroke-linecap="round" stroke-linejoin="round"/>
    <path fill-rule="evenodd" clip-rule="evenodd" d="M29.25 17.3909C23.1127 17.3909 18.1355 22.3681 18.1355 28.5054C18.1355 34.6427 23.1127 39.6199 29.25 39.6199C35.3873 39.6199 40.3645 34.6427 40.3645 28.5054C40.3645 22.3681 35.3873 17.3909 29.25 17.3909ZM29.25 38.4705C23.7435 38.4705 19.2849 34.0065 19.2849 28.5054C19.2849 22.9989 23.7489 18.5403 29.25 18.5403C34.7511 18.5403 39.2151 23.0043 39.2151 28.5054C39.2151 34.0119 34.7511 38.4705 29.25 38.4705Z" fill="black" stroke="black" stroke-width="0.29" stroke-miterlimit="3.17"/>
    <path fill-rule="evenodd" clip-rule="evenodd" d="M29.2499 20.1227C28.8596 20.5664 28.619 21.1438 28.619 21.78C28.6404 23.1753 28.8115 24.5706 28.8275 25.9713C28.8596 27.2757 28.4694 28.4947 27.9936 29.6868C27.8332 30.0183 27.6621 30.3391 27.491 30.6598L26.9885 30.5582C26.5341 30.4674 26.24 30.029 26.3309 29.5746C26.4111 29.179 26.7586 28.901 27.1489 28.901L27.3306 28.9223L26.919 25.5062C26.7853 23.9826 25.9995 22.6514 24.8447 21.78C24.6469 21.6303 24.4331 21.4966 24.2139 21.3737V33.5093H27.0152C27.2237 34.648 27.8492 35.637 28.7313 36.316C28.9398 36.4603 29.1162 36.6528 29.2392 36.872C29.3675 36.6474 29.5386 36.4603 29.7471 36.316C30.6238 35.637 31.2547 34.6427 31.4632 33.5093H34.2645V21.3737C34.0453 21.4913 33.8368 21.6303 33.6337 21.78C32.4789 22.646 31.693 23.9826 31.5594 25.5062L31.1477 28.9223L31.3295 28.901C31.7198 28.901 32.0673 29.179 32.1475 29.5746C32.2383 30.029 31.9443 30.4674 31.4899 30.5582L30.9874 30.6598C30.8163 30.3391 30.6452 30.0129 30.4848 29.6868C30.009 28.4947 29.6188 27.2704 29.6508 25.9713C29.6669 24.576 29.838 23.1806 29.8593 21.78C29.8593 21.1438 29.6241 20.5664 29.2285 20.1227H29.2499ZM25.0639 23.1218C25.6039 23.758 25.9674 24.5492 26.0797 25.4207L26.4165 28.238C25.9888 28.4519 25.6627 28.8422 25.5397 29.318H25.0639V23.1218ZM33.4412 23.1218V29.318H32.9654C32.8425 28.8422 32.5163 28.4519 32.0887 28.238L32.4255 25.4207C32.5324 24.5492 32.8959 23.758 33.4412 23.1218ZM29.2552 28.7887C29.4798 29.5265 29.7898 30.2214 30.1748 30.8737C29.8112 30.9859 29.4905 31.1998 29.2552 31.4938C29.02 31.2051 28.6992 30.9859 28.3357 30.8737C28.7206 30.2214 29.0307 29.5265 29.2552 28.7887ZM25.0692 30.1573H25.545C25.6947 30.7347 26.1438 31.1944 26.7212 31.3495L27.1221 31.4404C27.0152 31.8306 26.9564 32.2423 26.9564 32.67H25.0692V30.1573ZM32.9708 30.1573H33.4466V32.67H31.5594C31.5594 32.2476 31.5006 31.836 31.3937 31.4404L31.7946 31.3495C32.3667 31.1891 32.8211 30.7347 32.9708 30.1573ZM27.9401 31.6382C28.448 31.7077 28.8382 32.146 28.8382 32.67H27.7904C27.7904 32.3118 27.8439 31.9643 27.9401 31.6382ZM30.5757 31.6382C30.6719 31.9696 30.7254 32.3118 30.7254 32.67H29.6776C29.6776 32.1407 30.0678 31.7077 30.5757 31.6382ZM27.8866 33.5093H28.8382V35.2735C28.3785 34.7923 28.0417 34.1829 27.8866 33.5093ZM29.6776 33.5093H30.6292C30.4741 34.1829 30.1373 34.7923 29.6776 35.2735V33.5093Z" fill="black" stroke="black" stroke-width="0.26" stroke-miterlimit="10"/>
    </g>
    <defs>
    <clipPath id="clip0_538_1339">
    <rect width="57" height="57" fill="white" transform="translate(0.75)"/>
    </clipPath>
    </defs>
</svg>
