<svg width="62" height="61" viewBox="0 0 62 61" fill="none" xmlns="http://www.w3.org/2000/svg">
    <path d="M41.7429 36.4612L61.5 41.3215V19.6785L41.7429 24.5388C40.6245 22.5256 38.975 20.8761 36.9618 19.7576L41.822 0H20.1795L25.0397 19.7576C23.0265 20.8761 21.3771 22.5256 20.2587 24.5388L0.5 19.6785V41.3215L20.2571 36.4612C21.3755 38.4744 23.025 40.1239 25.0382 41.2424L20.178 61H41.8205L36.9603 41.2424C38.9735 40.1239 40.6229 38.4744 41.7413 36.4612H41.7429ZM60.0362 39.4544L42.388 35.113C42.9815 33.6461 43.2828 32.0955 43.2828 30.4992C43.2828 28.903 42.9815 27.3524 42.388 25.8855L60.0362 21.5441V39.4544ZM20.2739 30.5008C20.2739 24.586 25.0853 19.7744 31 19.7744C36.9147 19.7744 41.7261 24.586 41.7261 30.5008C41.7261 31.9205 41.4522 33.3022 40.9151 34.5956L40.8649 34.7158C39.1728 38.6707 35.3002 41.2272 31 41.2272C25.0853 41.2272 20.2739 36.4156 20.2739 30.5008ZM39.9549 1.46387L35.6136 19.1124C34.1468 18.519 32.5962 18.2177 31 18.2177C29.4038 18.2177 27.8532 18.519 26.3863 19.1124L22.0466 1.46387H39.9549ZM22.0466 59.5377L26.3879 41.8891C27.8547 42.4826 29.4053 42.7838 31.0015 42.7838C32.5977 42.7838 34.1483 42.4826 35.6152 41.8891L39.9564 59.5377H22.0466ZM19.6135 35.1145L1.96535 39.4559V21.5471L19.6135 25.8885C19.02 27.3554 18.7187 28.906 18.7187 30.5023C18.7187 32.0985 19.02 33.6491 19.6135 35.116V35.1145Z" fill="black"/>
    <path d="M35.9149 22.8999C35.8465 22.9471 35.7765 22.9958 35.7095 23.0475C35.1358 23.4766 34.6504 24.0016 34.27 24.6057C33.7724 25.3879 33.4666 26.2918 33.3844 27.2154L32.9158 31.1353L33.2977 31.0942C33.6538 31.0988 33.9627 31.356 34.0326 31.709C34.1148 32.1198 33.847 32.5216 33.4346 32.6037L32.9949 32.692C32.829 32.3785 32.6586 32.0575 32.508 31.7425C32.0195 30.519 31.5737 29.1875 31.6071 27.7419C31.6163 26.9628 31.6695 26.17 31.7228 25.4016C31.773 24.6712 31.8247 23.9164 31.8369 23.1693C31.8369 22.4662 31.5797 21.7876 31.1126 21.2565L30.9985 21.1271L30.8844 21.2565C30.4172 21.7876 30.16 22.4662 30.16 23.1723C30.1722 23.9179 30.224 24.6727 30.2742 25.4031C30.3259 26.17 30.3807 26.9628 30.3898 27.7435C30.4233 29.1875 29.9774 30.519 29.4936 31.7333C29.3399 32.0559 29.1695 32.3785 29.0036 32.692L28.5638 32.6037C28.1515 32.5216 27.8837 32.1198 27.9658 31.709C28.0358 31.3575 28.3447 31.1003 28.7008 31.0942L29.0827 31.1353L28.6125 27.2215C28.5319 26.2979 28.226 25.394 27.7284 24.6073C27.3465 24.0016 26.8626 23.4782 26.289 23.049C26.2205 22.9973 26.1505 22.9456 26.082 22.8999C25.9344 22.798 25.7731 22.6975 25.586 22.5925L25.3592 22.4662V36.1249H28.4436C28.6962 37.3286 29.3688 38.4029 30.3548 39.1637C30.5648 39.3068 30.7413 39.5 30.8661 39.7207L30.9985 39.955L31.1309 39.7207C31.2556 39.5 31.4321 39.3083 31.6482 39.1592C32.6282 38.4014 33.3007 37.3286 33.5518 36.1249H36.6362V22.4678L36.4095 22.5925C36.2269 22.693 36.0641 22.7949 35.9119 22.9014L35.9149 22.8999ZM35.4204 32.4653V34.9045H33.6644C33.6538 34.5424 33.6051 34.1833 33.5199 33.8302L33.812 33.7633C34.06 33.6948 34.2883 33.5791 34.4891 33.4239C34.8072 33.1805 35.0446 32.8426 35.1678 32.4653H35.4204ZM35.4204 31.2464H35.1693C35.0172 30.7762 34.6931 30.3805 34.2609 30.1356L34.617 27.1622C34.7113 26.4089 34.9867 25.6968 35.4204 25.0775V31.2464ZM30.3929 36.1234V37.4899C30.0748 37.0821 29.839 36.618 29.7005 36.1234H30.3929ZM32.4471 34.9045H31.6224C31.6817 34.5272 31.9617 34.2122 32.3314 34.1072C32.3984 34.3735 32.4364 34.6413 32.4471 34.9045ZM31.7821 33.01C31.4854 33.1287 31.2191 33.3083 31.0015 33.5365C30.7839 33.3068 30.5192 33.1272 30.2209 33.01C30.5298 32.4683 30.7915 31.8962 31.0015 31.3042C31.21 31.8962 31.4717 32.4668 31.7821 33.01ZM30.3807 34.9045H29.556C29.5666 34.6413 29.6062 34.375 29.6716 34.1072C30.0414 34.2122 30.3213 34.5256 30.3807 34.9045ZM32.301 36.1234C32.1625 36.618 31.9267 37.0821 31.6102 37.4899V36.1234H32.301ZM28.4817 33.8302C28.3965 34.1817 28.3478 34.5424 28.3371 34.9045H26.5826V32.4653H26.8337C26.957 32.8442 27.1943 33.182 27.5124 33.4239C27.7132 33.5807 27.9415 33.6948 28.1986 33.7663L28.4832 33.8317L28.4817 33.8302ZM26.5826 31.2464V25.079C27.0163 25.6968 27.2917 26.4105 27.3861 27.1622L27.7421 30.1356C27.31 30.3805 26.9874 30.7762 26.8337 31.2464H26.5826Z" fill="black"/>
</svg>
