<svg width="54" height="53" viewBox="0 0 54 53" fill="none" xmlns="http://www.w3.org/2000/svg">
    <path d="M52.8727 13.2073C52.4685 9.70334 51.678 7.40329 50.2137 5.52551C49.4861 4.6001 48.6507 3.76454 47.7254 3.03679C45.848 1.5723 43.5483 0.772673 40.0449 0.377352C36.7122 0 32.5351 0 26.75 0C20.9649 0 16.7878 0 13.4551 0.377352C9.95169 0.781658 7.65203 1.5723 5.77458 3.03679C4.84932 3.76454 4.0139 4.6001 3.28627 5.52551C1.82203 7.41227 1.03153 9.70334 0.627288 13.2073C0.25 16.5406 0.25 20.7184 0.25 26.5045C0.25 32.2906 0.25 36.4684 0.627288 39.7927C1.03153 43.2967 1.82203 45.5967 3.28627 47.4745C4.0139 48.3999 4.84932 49.2355 5.77458 49.9632C7.65203 51.4277 9.95169 52.2273 13.4551 52.6226C16.7878 53 20.9649 53 26.75 53C32.5351 53 36.7032 53 40.0449 52.6226C43.5483 52.2273 45.848 51.4277 47.7254 49.9632C48.6507 49.2355 49.4861 48.3999 50.2137 47.4745C51.678 45.5967 52.4775 43.2967 52.8727 39.7927C53.25 36.4594 53.25 32.2816 53.25 26.5045C53.25 20.7274 53.25 16.5496 52.8727 13.2073ZM51.0851 39.586C50.7258 42.7396 50.043 44.7701 48.7944 46.3604C48.1566 47.169 47.429 47.9057 46.6205 48.5347C45.0215 49.7835 42.9914 50.4664 39.8473 50.8257C36.6134 51.1941 32.4812 51.1941 26.759 51.1941C21.0368 51.1941 16.9046 51.1941 13.6707 50.8257C10.5176 50.4664 8.49644 49.7835 6.89746 48.5347C6.08898 47.8968 5.35237 47.169 4.72356 46.3604C3.47492 44.7611 2.7922 42.7306 2.43288 39.586C2.06458 36.3516 2.06458 32.2187 2.06458 26.4955C2.06458 20.7723 2.06458 16.6394 2.43288 13.405C2.7922 10.2514 3.47492 8.22987 4.72356 6.63062C5.35237 5.822 6.08898 5.08527 6.89746 4.45635C8.49644 3.20749 10.5266 2.52467 13.6707 2.16528C16.9046 1.79691 21.0368 1.79691 26.759 1.79691C32.4812 1.79691 36.6134 1.79691 39.8473 2.16528C43.0003 2.52467 45.0215 3.20749 46.6205 4.45635C47.429 5.08527 48.1656 5.822 48.7944 6.63062C50.043 8.22987 50.7258 10.2604 51.0851 13.405C51.4534 16.6394 51.4534 20.7723 51.4534 26.4955C51.4534 32.2187 51.4534 36.3516 51.0851 39.586Z" fill="black"/>
    <path d="M31.1158 20.8891L30.3522 27.3041L30.6936 27.2682C31.4212 27.2682 32.0769 27.7893 32.2297 28.535C32.4003 29.3885 31.8434 30.2151 30.999 30.3858L30.0558 30.5745C29.7324 29.9725 29.409 29.3616 29.1125 28.7416C28.2232 26.5045 27.4866 24.2044 27.5495 21.7606C27.5764 19.1371 27.8998 16.5136 27.9447 13.8991C27.9447 12.7042 27.4956 11.6171 26.768 10.7815H26.759C26.0224 11.6171 25.5822 12.7042 25.5822 13.8991C25.6271 16.5226 25.9505 19.1461 25.9775 21.7606C26.0314 24.2044 25.3037 26.5045 24.4144 28.7416C24.118 29.3616 23.7946 29.9636 23.4712 30.5745L22.528 30.3858C21.6746 30.2151 21.1266 29.3885 21.2973 28.535C21.45 27.7893 22.1058 27.2682 22.8334 27.2682L23.1747 27.3041L22.4112 20.8891C22.1597 18.032 20.6864 15.5253 18.5215 13.8991C18.1532 13.6206 17.758 13.3601 17.3447 13.1354V35.9113H22.5998C22.9951 38.0407 24.1629 39.9095 25.8158 41.1763C26.211 41.4458 26.5344 41.8052 26.7769 42.2185C27.0105 41.8052 27.3429 41.4458 27.7381 41.1763C29.391 39.9005 30.5588 38.0407 30.9541 35.9113H36.2092V13.1354C35.7959 13.3601 35.4007 13.6206 35.0324 13.8991C32.8675 15.5253 31.3942 18.032 31.1427 20.8891H31.1158ZM18.8808 16.4238C19.8959 17.6187 20.5786 19.1012 20.7853 20.7454L21.4141 26.0373C20.6056 26.4416 20.0037 27.1783 19.7702 28.0678H18.8808V16.4238ZM22.4202 34.357H18.8808V29.6401H19.7702C20.0486 30.7272 20.902 31.5808 21.971 31.8863L22.7256 32.057C22.528 32.7937 22.4112 33.5574 22.4112 34.357H22.4202ZM24.2707 32.4163C25.2229 32.5511 25.9595 33.3687 25.9595 34.357H23.9922C23.9922 33.6832 24.091 33.0363 24.2707 32.4163ZM25.9595 39.2446C25.0971 38.3372 24.4683 37.1961 24.1719 35.9383H25.9595V39.2446ZM26.741 32.1468C26.3008 31.5987 25.699 31.1944 25.0163 30.9878C25.7349 29.7659 26.3188 28.4541 26.741 27.0705C27.1632 28.4541 27.7471 29.7659 28.4658 30.9878C27.7831 31.1944 27.1812 31.5987 26.741 32.1468ZM27.5225 39.2446V35.9383H29.3102C29.0227 37.2051 28.3939 38.3462 27.5225 39.2446ZM27.5225 34.357C27.5225 33.3687 28.2592 32.5511 29.2114 32.4163C29.391 33.0363 29.4898 33.6832 29.4898 34.357H27.5225ZM32.059 26.0373L32.6878 20.7454C32.8944 19.1102 33.5771 17.6187 34.5922 16.4238V28.0588H33.7029C33.4693 27.1693 32.8585 26.4326 32.059 26.0283V26.0373ZM34.6012 34.357H31.0619C31.0619 33.5574 30.9541 32.7847 30.7475 32.057L31.502 31.8863C32.58 31.5898 33.4244 30.7272 33.7029 29.6401H34.5922V34.357H34.6012Z" fill="black"/>
</svg>
