<svg width="304" height="66" viewBox="0 0 304 66" fill="none" xmlns="http://www.w3.org/2000/svg">
    <path d="M237.412 25.4177C237.412 25.4177 237.432 25.4177 237.462 25.4471C237.501 25.3981 237.422 25.3589 237.412 25.4177Z" fill="white"/>
    <path d="M258.32 4.33458C258.32 4.33458 258.359 4.35364 258.369 4.36316C258.408 4.33458 258.427 4.27742 258.369 4.24885C258.34 4.24885 258.311 4.31553 258.32 4.33458Z" fill="white"/>
    <path d="M254.247 9.55514C254.335 9.62182 254.413 9.62182 254.471 9.58372C254.452 9.51703 254.296 9.48845 254.247 9.55514Z" fill="white"/>
    <path d="M237.239 23.0066C237.239 23.0066 237.139 23.0066 237.169 23.0361C237.189 23.0164 237.229 23.0557 237.239 23.0066Z" fill="white"/>
    <path d="M257.99 3.79157C258.068 3.82968 258.145 3.86778 258.194 3.82015C258.155 3.76299 258.038 3.75346 257.99 3.79157Z" fill="white"/>
    <path d="M254.549 10.2982C254.549 10.2982 254.588 10.3268 254.617 10.3363C254.656 10.3077 254.646 10.2792 254.656 10.241C254.636 10.2315 254.617 10.222 254.607 10.2125C254.578 10.2125 254.549 10.2792 254.558 10.2982H254.549Z" fill="white"/>
    <path d="M250.33 34.8672C250.068 34.3909 249.747 33.9241 249.669 33.3906C249.543 33.1715 249.455 32.9428 249.533 32.6761C249.552 32.3522 249.319 32.0759 249.261 31.752C249.164 31.6568 249.115 31.5424 249.105 31.4281C249.066 31.4091 249.066 31.371 249.028 31.3519C249.018 31.0852 248.862 30.8565 248.726 30.6279C248.493 30.4945 248.299 30.2373 248.046 30.0182C247.9 29.8848 247.706 29.78 247.57 29.6562C247.482 29.58 247.336 29.3799 247.2 29.399C247.074 29.1798 246.821 29.3132 246.656 29.2465C246.539 29.1989 246.461 29.0655 246.345 28.9893C246.189 28.8941 246.024 28.894 245.868 28.7797C245.82 28.7321 245.839 28.6559 245.752 28.6178C245.635 28.2844 246.15 27.9223 246.014 27.5318C246.238 27.2936 246.141 26.9887 245.839 26.8268C245.859 26.6648 245.684 26.4553 245.528 26.4362C245.46 26.4171 245.557 26.3505 245.509 26.3219C245.47 26.2838 245.441 26.3219 245.412 26.3409C245.412 26.2647 245.324 26.2266 245.275 26.2171C245.198 26.1409 245.169 26.0932 245.062 26.0456C245.11 26.0075 245.003 26.0075 245.052 25.9694C244.809 25.8551 244.712 25.6074 244.527 25.4454C244.527 25.3502 244.459 25.274 244.391 25.1977C244.391 25.0453 244.342 24.9024 244.255 24.769C244.352 24.6928 244.226 24.5785 244.323 24.5404C244.294 24.5118 244.303 24.4737 244.255 24.4547C244.323 24.2832 244.313 24.1498 244.294 23.9688C244.352 23.9212 244.362 23.8354 244.342 23.7592C244.128 23.6259 244.109 23.3591 243.915 23.1876C243.672 23.0733 243.487 23.1019 243.302 23.2734C243.244 23.321 243.166 23.4258 243.137 23.502C243.108 23.5687 243.137 23.6449 243.108 23.7211C243.049 23.9498 242.806 24.0736 242.758 24.2165C242.651 24.2451 242.554 24.3213 242.447 24.3689C242.398 24.5023 242.369 24.5499 242.272 24.6928C242.204 24.7214 242.116 24.7214 242.058 24.7976C242.039 24.8453 242.097 24.8738 242.058 24.931C241.951 24.931 241.98 24.7976 241.951 24.7309C241.902 24.6262 241.834 24.5309 241.844 24.407C241.902 24.2927 241.912 24.2165 241.961 24.1212C242.048 24.1212 242.126 24.1022 242.194 24.0641C242.35 23.7783 242.272 23.3877 241.912 23.6068C241.825 23.6544 241.737 23.7307 241.63 23.7878C241.543 23.8354 241.416 23.8736 241.348 23.9212C241.3 23.9498 241.271 24.045 241.203 24.0831C241.183 24.0927 241.144 24.0831 241.125 24.0927C240.911 24.2356 240.59 24.5309 240.406 24.2165C240.056 24.0546 240.328 23.7402 240.532 23.5497C240.658 23.4258 240.804 23.2448 240.93 23.1591C240.96 23.14 241.008 23.1495 241.057 23.121C241.105 23.1019 241.144 23.0352 241.183 23.0257C241.212 23.0162 241.261 23.0352 241.28 23.0257C241.378 22.9876 241.446 22.9209 241.514 22.8828C241.514 22.8637 241.485 22.8447 241.514 22.8542C241.378 22.7399 241.008 22.6351 240.804 22.4827C240.804 22.4541 240.794 22.4255 240.833 22.3779C240.464 22.1111 239.871 21.8158 239.453 21.8539C239.414 21.9111 239.307 21.9111 239.317 21.9778C238.957 22.0445 238.704 22.2636 238.345 22.3207C238.18 22.416 238.024 22.5303 237.839 22.5494C237.723 22.6446 237.606 22.7685 237.47 22.7971C237.451 22.8542 237.421 22.8447 237.402 22.8923C237.373 22.8637 237.363 22.8542 237.334 22.8733C237.334 22.8923 237.363 22.9018 237.382 22.9114C237.353 23.1591 237.081 23.3686 236.867 23.483C236.741 23.5497 236.605 23.6544 236.508 23.5687C236.342 23.4258 236.673 23.2639 236.673 23.121C236.828 22.8923 237.091 22.8256 237.324 22.7589C237.587 22.3969 237.966 22.416 238.248 22.1111C238.491 22.054 238.636 21.8635 238.841 21.7015C238.928 21.5395 239.035 21.5205 239.113 21.3966C239.113 21.3014 239.093 21.2061 239.025 21.1299C238.656 20.9775 238.325 20.8917 238.17 20.5583C238.141 20.5012 238.102 20.3392 238.073 20.2154C238.043 20.0915 238.082 19.9677 238.073 19.8438C238.17 19.6628 238.199 19.5104 238.218 19.3484C238.209 19.3103 238.16 19.3389 238.189 19.2818C238.092 19.196 237.956 19.1389 237.839 19.0722L230.763 19.4342C230.909 21.3681 231.317 23.1972 232.017 24.8929C232.901 27.0554 234.155 28.9512 235.779 30.5612C237.402 32.1712 239.327 33.4287 241.533 34.3242C243.74 35.2197 246.179 35.6674 248.833 35.6674C249.514 35.6674 250.175 35.6389 250.826 35.5817C250.651 35.3531 250.447 35.1625 250.35 34.8863L250.33 34.8672ZM233.174 24.9024C232.969 25.0072 232.785 25.1501 232.61 25.1406C232.542 25.2359 232.415 25.3883 232.25 25.3311C232.211 25.293 232.25 25.2359 232.202 25.2073C232.299 25.093 232.406 25.0644 232.532 25.0739C232.872 24.6928 233.271 24.4166 233.766 24.388C233.737 24.4356 233.815 24.3975 233.854 24.4547C233.796 24.75 233.417 24.7881 233.183 24.9119L233.174 24.9024ZM237.548 25.7693C237.441 25.8646 237.169 25.9027 237.052 25.8551C236.867 25.7693 236.828 25.5502 236.838 25.3978C236.955 25.1787 237.091 25.0358 237.256 24.9882C237.528 24.9977 237.674 25.1977 237.732 25.3883C237.684 25.5121 237.664 25.6645 237.548 25.7693ZM245.178 27.4079C245.12 27.3698 245.149 27.2745 245.207 27.2364C245.246 27.265 245.237 27.3031 245.246 27.3412C245.227 27.3603 245.198 27.3603 245.178 27.4079ZM248.765 33.8002C248.765 33.8002 248.736 33.7907 248.736 33.8002C248.464 33.5621 248.542 33.2191 248.464 32.9238C248.58 32.9238 248.561 33.1048 248.629 33.2382C248.716 33.4096 248.882 33.5525 248.823 33.7621C248.794 33.7526 248.794 33.8002 248.765 33.8002Z" fill="white"/>
    <path d="M216.863 20.1201V34.8196H225.883V19.6628L216.863 20.1201Z" fill="white"/>
    <path d="M116.703 25.2263L113.087 34.8196H122.604L124.606 28.9607H136.718L138.71 34.8196H148.723L144.582 23.8069L116.703 25.2263Z" fill="white"/>
    <path d="M82.2931 26.9792V34.8196H91.7608V26.4934L82.2931 26.9792Z" fill="white"/>
    <path d="M176.212 22.1969L152.416 23.4067V34.8196H161.884V24.3689H166.268L173.15 34.8196H183.765L175.444 22.6542C175.716 22.5113 175.959 22.3493 176.212 22.1969Z" fill="white"/>
    <path d="M187.303 21.6253V34.8196H196.275V21.168L187.303 21.6253Z" fill="white"/>
    <path d="M200.863 20.9394L206.598 30.323L212.625 20.3392L200.863 20.9394Z" fill="white"/>
    <path d="M248.989 27.3317C248.93 27.3793 248.94 27.427 248.979 27.4746C249.047 27.4746 249.066 27.3603 248.989 27.3317Z" fill="white"/>
    <path d="M234.107 17.6337C234.107 17.5765 234 17.5289 233.971 17.5956C234.019 17.6146 234.078 17.6718 234.107 17.6337Z" fill="white"/>
    <path d="M55.7952 28.332L60.0625 34.8196H70.6772L65.885 27.8175L55.7952 28.332Z" fill="white"/>
    <path d="M235.498 16.5112C235.528 16.4622 235.488 16.4622 235.448 16.4524C235.418 16.4916 235.468 16.521 235.498 16.5112Z" fill="white"/>
    <path d="M249.698 28.0081C249.436 27.9033 249.193 27.8366 248.979 27.9128C249.212 28.0652 249.514 28.1415 249.698 28.0081Z" fill="white"/>
    <path d="M250.418 30.0563C250.369 30.1611 250.437 30.2659 250.437 30.3707C250.437 30.666 250.388 30.9804 250.709 31.1614C250.806 31.0471 250.661 30.9804 250.612 30.9042C250.495 30.7136 250.525 30.4564 250.583 30.2087C250.563 30.1516 250.505 29.9896 250.418 30.0468V30.0563Z" fill="white"/>
    <path d="M233.757 16.9859C233.669 16.9382 233.582 16.9192 233.514 16.9573C233.562 17.0144 233.698 17.0621 233.757 16.9859Z" fill="white"/>
    <path d="M240.96 19.8248C241.028 19.8248 241.125 19.901 241.173 19.8438C241.096 19.8343 241.008 19.7486 240.96 19.8248Z" fill="white"/>
    <path d="M247.395 16.1761C247.395 16.1761 247.365 16.2428 247.414 16.2523C247.424 16.2333 247.433 16.2142 247.443 16.2047C247.424 16.1951 247.404 16.1856 247.395 16.1761Z" fill="white"/>
    <path d="M249.455 3.39145C249.455 3.39145 249.543 3.45814 249.552 3.39145C249.514 3.36287 249.436 3.35335 249.455 3.39145Z" fill="white"/>
    <path d="M237.557 15.0043C237.625 15.0805 237.762 15.1282 237.82 15.052C237.791 14.9853 237.606 14.9281 237.557 15.0043Z" fill="white"/>
    <path d="M247.367 15.7578C247.367 15.7578 247.327 15.7382 247.317 15.7283C247.277 15.7774 247.357 15.8166 247.367 15.7578Z" fill="white"/>
    <path d="M247.161 15.4902C247.229 15.5092 247.307 15.5664 247.356 15.5092C247.288 15.4807 247.21 15.4425 247.161 15.4902Z" fill="white"/>
    <path d="M238.082 15.8903C238.082 15.8903 238.16 15.976 238.209 15.9665C238.248 15.8998 238.121 15.795 238.082 15.8903Z" fill="white"/>
    <path d="M246.822 10.4905C246.822 10.4905 246.842 10.4611 246.842 10.4513C246.822 10.4513 246.792 10.4218 246.782 10.4316C246.802 10.4513 246.772 10.4807 246.822 10.4905Z" fill="white"/>
    <path d="M247.268 15.6236C247.21 15.6045 247.152 15.5854 247.093 15.595C247.152 15.614 247.22 15.6617 247.268 15.6236Z" fill="white"/>
    <path d="M262.675 23.7402C262.763 23.8354 262.908 23.8259 262.986 23.7592C262.938 23.6735 262.743 23.6544 262.675 23.7402Z" fill="white"/>
    <path d="M257.397 20.5774C257.397 20.5774 257.465 20.5774 257.504 20.625C257.533 20.5964 257.562 20.5583 257.591 20.5012C257.572 20.463 257.543 20.4154 257.504 20.3868C257.445 20.4059 257.377 20.5202 257.397 20.5774Z" fill="white"/>
    <path d="M257.261 17.3383C257.319 17.3669 257.368 17.3574 257.416 17.3574C257.475 17.2812 257.513 17.205 257.504 17.1192C257.368 16.9954 257.27 17.205 257.261 17.3383Z" fill="white"/>
    <path d="M250.486 33.2382C250.388 33.3048 250.447 33.4477 250.525 33.4668C250.554 33.3811 250.554 33.2953 250.486 33.2382Z" fill="white"/>
    <path d="M258.097 20.0153C258.174 20.082 258.184 20.2154 258.301 20.2249C258.34 20.1106 258.233 20.0344 258.272 19.92C258.369 19.8819 258.524 19.7104 258.476 19.5961C258.311 19.6533 258.194 19.8343 258.097 20.0153Z" fill="white"/>
    <path d="M263.229 24.4737C263.278 24.5309 263.414 24.5976 263.453 24.4737C263.394 24.4166 263.268 24.3499 263.229 24.4737Z" fill="white"/>
    <path d="M252.158 9.33603C251.934 9.27887 251.72 9.23123 251.526 9.28839C251.769 9.42177 251.973 9.43129 252.158 9.33603Z" fill="white"/>
    <path d="M249.125 6.6019C249.203 6.63048 249.28 6.68764 249.329 6.63048C249.251 6.6019 249.183 6.57332 249.125 6.6019Z" fill="white"/>
    <path d="M251.322 7.20208C251.38 7.2116 251.458 7.27829 251.506 7.22113C251.438 7.20208 251.37 7.16397 251.322 7.20208Z" fill="white"/>
    <path d="M236.138 7.73556C236.09 7.81178 236.177 7.91657 236.255 7.89752C236.304 7.81178 236.235 7.75462 236.138 7.73556Z" fill="white"/>
    <path d="M235.905 6.5638C235.866 6.46853 235.672 6.41137 235.604 6.48759C235.594 6.61143 235.847 6.68764 235.905 6.5638Z" fill="white"/>
    <path d="M250.738 28.9893C250.738 28.9893 250.709 28.9988 250.699 29.0369C250.729 29.0465 250.719 29.0655 250.748 29.0751C250.768 29.0369 250.787 29.0084 250.748 28.9893H250.738Z" fill="white"/>
    <path d="M294.772 22.6542C296.667 21.6729 298.145 20.3201 299.204 18.5768C300.264 16.8334 300.799 14.8233 300.799 12.5465C300.799 10.2696 300.235 8.15473 299.107 6.39232C297.98 4.62991 296.395 3.26761 294.373 2.28637C292.342 1.30514 289.97 0.819284 287.248 0.819284H271.744V34.8196H281.212V24.3689H285.596L292.478 34.8196H303.093L294.772 22.6542ZM289.912 15.5473C289.066 16.2523 287.695 16.5953 285.8 16.5953H281.212V8.58343H285.8C287.695 8.58343 289.066 8.8978 289.912 9.5075C290.757 10.1267 291.185 11.108 291.185 12.4417C291.185 13.7754 290.757 14.8424 289.912 15.5473Z" fill="white"/>
    <path d="M259.623 15.5106C259.623 15.5106 259.713 15.491 259.683 15.4616C259.653 15.4616 259.603 15.4616 259.623 15.5106Z" fill="white"/>
    <path d="M259.078 14.9567C259.147 14.9662 259.215 15.0043 259.263 14.9567C259.195 14.9567 259.127 14.9186 259.078 14.9567Z" fill="white"/>
    <path d="M251.953 7.71651C251.876 7.67841 251.808 7.67841 251.749 7.68793C251.788 7.73556 251.915 7.77367 251.953 7.71651Z" fill="white"/>
    <path d="M258.942 18.9388C258.729 18.9388 258.495 18.8816 258.301 18.9579C258.486 19.0626 258.699 18.9674 258.904 19.015C258.904 18.9483 259.01 18.9769 258.952 18.9388H258.942Z" fill="white"/>
    <path d="M260.177 25.6645C260.187 25.7312 260.342 25.817 260.381 25.7312C260.381 25.655 260.216 25.5788 260.177 25.6645Z" fill="white"/>
    <path d="M261.868 5.09671C260.235 3.48672 258.32 2.22921 256.114 1.33372C254.111 0.523961 251.924 0.104792 249.562 0.0190531C249.611 0.142898 249.543 0.247691 249.562 0.381062C249.514 0.457275 249.494 0.457275 249.494 0.533487C249.455 0.590647 249.475 0.466801 249.416 0.457275C249.339 0.504907 249.377 0.600173 249.426 0.619226C249.28 0.733545 249.037 0.88597 248.794 0.790704C248.454 0.657332 248.396 0.30485 248.551 0.0190531C248.551 0.0190531 248.561 0.00952656 248.571 0C246.014 0.0285797 243.652 0.466801 241.514 1.33372C239.307 2.22921 237.382 3.48672 235.759 5.09671C235.574 5.28724 235.409 5.4873 235.225 5.67783C235.361 5.67783 235.516 5.69688 235.691 5.74451C235.915 5.80167 236.216 5.92552 236.478 6.1351C236.828 6.40185 236.887 6.86865 236.78 7.28782C236.712 7.52598 236.634 7.65935 236.527 7.86894C236.381 8.15473 236.138 8.48816 235.847 8.66917C235.545 8.70727 235.322 8.8978 234.982 8.91686C234.661 8.93591 234.253 8.76443 233.961 8.5739C233.728 8.42148 233.562 8.21189 233.417 8.01184C232.872 8.87875 232.386 9.78377 231.988 10.7555C231.103 12.918 230.666 15.2711 230.666 17.8147C230.666 18.1005 230.695 18.3863 230.705 18.6721L237.091 18.6054C237.091 18.6054 237.023 18.5577 236.994 18.5482C236.819 18.472 236.585 18.5101 236.381 18.4434C236.235 18.3958 236.099 18.3291 235.944 18.3005C235.759 18.2624 235.594 18.2815 235.448 18.1767C235.4 18.0433 235.458 17.9385 235.584 17.8528C235.759 17.7861 235.954 17.929 236.099 18.0052C236.313 18.1195 236.634 18.0719 236.858 18.1862C236.877 18.1957 236.877 18.2148 236.906 18.2243C237.023 18.2719 237.217 18.2529 237.373 18.31C237.548 18.3767 237.703 18.491 237.859 18.5482C237.927 18.5673 238.005 18.5863 238.082 18.5958H238.296C238.364 18.5958 238.432 18.5958 238.491 18.5577C238.578 18.3482 238.831 18.2529 238.957 18.1386C239.152 18.1386 239.278 17.9099 239.472 17.9004C239.56 17.7861 239.676 17.7956 239.754 17.6527C239.822 17.6051 239.9 17.586 239.949 17.4908C239.968 17.4812 239.997 17.5193 240.017 17.4908C240.046 17.405 240.017 17.2621 240.143 17.2716C240.124 17.205 240.163 17.1954 240.182 17.1192C240.201 17.0621 240.094 17.0335 240.172 16.9573C240.056 16.7286 239.764 16.5476 239.745 16.2999C239.851 15.9475 240.192 15.9379 240.415 16.0999C240.551 16.0808 240.785 16.0999 240.804 15.9284C241.105 15.9284 241.319 15.7379 241.601 15.7474C241.601 15.6902 241.562 15.7665 241.543 15.7283C241.64 15.6998 241.611 15.5569 241.698 15.4807C241.718 15.2997 241.698 15.0329 241.883 14.9472C242.029 14.8805 242.233 15.0139 242.35 14.8805C242.408 14.6804 242.301 14.5185 242.223 14.3565C242.243 14.3565 242.262 14.3184 242.282 14.2898C242.262 14.2517 242.233 14.2136 242.184 14.185C242.194 14.1374 242.233 14.185 242.252 14.1565C242.214 14.0803 242.077 14.0421 242.009 14.0421C242.009 14.004 242.009 13.9278 241.951 13.9564C241.971 13.8992 241.99 13.8326 241.971 13.7659C241.912 13.7278 241.864 13.6992 241.864 13.623C241.864 13.5753 241.902 13.623 241.932 13.623C241.932 13.5944 241.834 13.461 241.786 13.5468C241.786 13.442 241.64 13.3562 241.63 13.2229C241.698 13.1943 241.766 13.1371 241.776 13.2038C241.902 13.2038 241.844 13.0514 241.854 13.0133C241.883 13.0514 241.873 13.0609 241.941 13.08C241.922 13.099 241.883 13.099 241.893 13.1371C241.941 13.1562 241.961 13.0704 241.961 13.0419C241.971 13.0895 242.019 13.0419 242.048 13.0419C242.126 12.918 242.447 12.6989 242.359 12.5274C242.447 12.4988 242.379 12.3845 242.495 12.3464C242.466 12.3369 242.495 12.2797 242.466 12.213C242.495 12.1845 242.563 12.1845 242.612 12.1654C242.563 12.1178 242.612 12.0987 242.573 12.0606C242.622 12.1178 242.661 11.9273 242.729 11.9654C242.729 11.9177 242.729 11.9368 242.729 11.8796C242.777 11.9272 242.845 11.851 242.884 11.8129C242.865 11.8129 242.855 11.8129 242.845 11.8225C242.836 11.7653 242.943 11.8225 242.981 11.7939C242.981 11.7367 243.011 11.7462 243.02 11.6986C243.049 11.7081 243.049 11.7272 243.069 11.7367C243.098 11.7177 243.088 11.67 243.118 11.651L243.176 11.6319C243.224 11.5652 243.224 11.47 243.292 11.4033C243.399 11.289 243.526 11.2509 243.662 11.1556C244.002 11.1842 244.265 11.0222 244.595 11.1556C244.566 11.108 244.644 11.1556 244.614 11.1175C244.673 11.1175 244.731 11.1461 244.789 11.1461C244.916 11.0508 245.052 10.9841 245.188 11.0318C245.237 11.0318 245.169 10.9746 245.169 10.9746C245.227 10.9365 245.324 10.9746 245.392 11.0318C245.421 11.0127 245.421 10.9746 245.441 11.0318C245.557 11.0032 245.625 10.946 245.723 10.9365C245.752 10.9746 245.771 10.946 245.791 10.9936C246.024 11.0222 246.248 11.0222 246.481 11.0699C246.656 11.1651 246.802 11.1651 246.947 11.0889C247.015 11.1365 247.045 11.0889 247.103 11.108C247.103 11.0794 247.103 11.0603 247.132 11.0603C247.161 11.0603 247.152 11.1365 247.239 11.1365C247.239 11.1556 247.239 11.1842 247.22 11.2032C247.569 11.4223 247.9 11.0794 248.143 10.9079C248.143 10.8126 248.172 10.7745 248.192 10.6793C248.405 10.6507 248.493 10.3077 248.697 10.222C249.057 9.85046 248.668 9.6504 248.444 9.44082C248.483 9.35508 248.454 9.20265 248.337 9.12644C248.299 8.91686 248.162 8.76443 248.075 8.61201C248.075 8.62153 248.075 8.64059 248.075 8.65011C248.065 8.64059 248.065 8.62153 248.065 8.61201C248.036 8.52627 248.046 8.37384 247.929 8.29763C247.919 8.17379 247.978 8.05947 247.91 7.93562C247.978 7.90704 247.978 7.77367 247.958 7.70699C248.036 7.55456 248.094 7.40214 248.046 7.23066C248.075 7.19255 248.133 7.11634 248.114 7.07823C248.435 6.98297 248.717 6.72575 249.037 6.63048C249.096 6.51617 249.125 6.44948 249.212 6.39232C249.28 6.4209 249.309 6.51617 249.368 6.5638C249.912 6.96391 250.281 6.22084 250.748 6.25895C250.797 6.31611 250.865 6.36374 250.894 6.45901C250.894 6.48759 250.874 6.50664 250.884 6.53522C250.923 6.63048 251.059 6.78291 251.117 6.89723C251.147 6.94486 251.147 7.0306 251.224 7.06871C251.292 7.10681 251.37 7.06871 251.448 7.09728C251.545 7.04965 251.623 6.94486 251.71 6.87817C251.74 6.87817 251.769 6.85912 251.798 6.82101C251.769 6.82101 251.74 6.85912 251.71 6.87817C251.778 7.01155 251.672 7.15444 251.633 7.27829C251.701 7.41166 251.74 7.58314 251.934 7.59267C252.119 7.61172 252.469 7.30687 252.634 7.08776C252.682 7.0306 252.692 6.94486 252.731 6.8877C252.75 6.85912 252.799 6.84959 252.819 6.82101C252.955 6.66859 253.062 6.48759 253.198 6.43043C253.275 6.58285 253.159 6.75433 253.11 6.91628C253.081 6.91628 253.052 6.90675 253.023 6.91628C252.974 6.98297 252.964 7.04013 252.955 7.09728C252.663 7.3164 252.469 7.4974 252.245 7.76414C252.274 7.9642 252.109 8.13568 251.944 8.20237C251.944 8.18331 251.983 8.12615 251.944 8.09757C251.924 8.19284 251.759 8.33574 251.778 8.47864C251.769 8.47864 251.749 8.45958 251.74 8.45958C251.701 8.55485 251.545 8.73585 251.516 8.94544C251.778 9.0026 252.06 9.10739 252.332 9.23123C252.362 9.25029 252.323 9.28839 252.352 9.30745C252.42 9.3265 252.488 9.36461 252.537 9.3265C252.614 9.42177 252.576 9.52656 252.644 9.6504C252.488 9.92667 252.595 10.2506 252.332 10.4316C252.294 10.5935 252.439 10.7079 252.527 10.8412C252.576 10.8031 252.605 10.8222 252.673 10.8412C252.848 10.8603 253.013 10.765 253.168 10.9079C253.168 11.0127 253.441 11.108 253.46 11.1747C253.46 11.1747 253.528 11.2223 253.528 11.2318C253.567 11.289 253.567 11.3461 253.616 11.3842C253.684 11.4319 253.742 11.4509 253.829 11.4509C253.878 11.4795 253.829 11.4604 253.829 11.4986C253.985 11.7367 254.17 11.9082 254.374 12.0511C254.345 12.0892 254.413 12.1083 254.393 12.1464C254.763 12.3083 254.85 12.9275 255.288 12.8037C255.297 12.7942 255.375 12.8132 255.356 12.8227C255.735 12.6989 256.114 12.4417 256.551 12.4417C256.775 12.537 256.784 12.6894 256.872 12.8227C256.852 12.8704 256.823 12.918 256.882 12.9466C256.571 13.3753 256.026 13.261 255.56 13.2991C255.54 13.3753 255.453 13.3753 255.414 13.4324C255.385 13.4801 255.433 13.4706 255.414 13.5087C255.414 13.5468 255.326 13.5658 255.365 13.6135C255.404 13.6611 255.433 13.6801 255.443 13.7563C255.511 13.7945 255.56 13.8421 255.569 13.8897C255.939 14.0993 256.328 14.0707 256.619 13.8611C256.823 13.8611 256.989 13.7087 257.154 13.5277C257.436 13.3753 257.718 13.1943 258.029 13.1181C258.213 13.1466 258.379 13.0514 258.554 13.0228C258.709 12.9942 258.865 13.0228 259.01 12.9752C259.215 12.899 259.36 12.7465 259.584 12.6894C259.701 12.4893 260.002 12.4322 260.099 12.1845C260.119 12.1464 260.157 12.1749 260.187 12.1464C260.196 12.0701 260.284 12.0606 260.274 12.0225C260.507 12.0225 260.76 11.7462 261.013 11.67C261.178 11.489 261.372 11.4223 261.586 11.4128C261.693 11.4986 261.868 11.489 261.946 11.6319C261.985 11.6891 261.927 11.7939 262.014 11.8225C261.956 11.8415 261.975 11.9463 261.936 11.9844C261.849 12.0892 261.722 12.2226 261.586 12.3178C261.47 12.3941 261.304 12.4226 261.168 12.5084C260.896 12.6703 260.595 12.8513 260.303 12.9752C260.235 13.0038 260.109 12.9942 260.099 13.0609C259.992 13.0895 259.837 13.1371 259.788 13.28C259.739 13.2419 259.759 13.3181 259.739 13.3372C259.739 13.3372 259.739 13.3181 259.72 13.3086C259.701 13.3562 259.681 13.4039 259.681 13.442C259.652 13.4706 259.681 13.4134 259.652 13.4039C259.594 13.5277 259.38 13.6897 259.253 13.8611C259.108 13.8897 258.894 14.166 258.942 14.3089C259.001 14.3279 259.03 14.2613 259.088 14.2898C258.855 14.4804 258.923 14.7757 259.156 14.8805C259.331 14.9662 259.545 14.9091 259.691 14.9376C259.71 15.0043 259.846 15.052 259.866 15.1472C259.866 15.3282 259.71 15.5188 259.623 15.6902C259.594 15.7188 259.623 15.6617 259.594 15.6521C259.244 16.1189 258.855 16.4047 258.349 16.5C257.99 17.0525 257.377 18.1481 258.038 18.5958C258.349 18.8054 258.962 18.8626 259.273 18.7864C259.467 18.834 259.633 18.7768 259.817 18.7959C260.439 18.7006 261.013 18.4148 261.645 18.3386C261.761 18.3958 261.858 18.4053 261.956 18.3767C261.965 18.3863 261.985 18.3863 261.985 18.3767C262.014 18.3863 262.014 18.4053 262.033 18.4148C262.296 18.5577 262.549 18.4339 262.792 18.4148C263.006 18.3958 263.219 18.4244 263.433 18.4339C263.56 18.4339 263.696 18.3958 263.812 18.4625C263.841 18.472 263.841 18.4244 263.871 18.4244C263.871 18.472 263.871 18.4434 263.929 18.472C263.861 18.653 263.647 18.6244 263.511 18.6625C263.083 18.7768 262.626 18.8912 262.179 18.9388C261.936 19.1007 261.674 19.196 261.431 19.3484C260.692 19.4247 259.934 19.4437 259.205 19.5485C259.049 19.6628 258.806 19.7486 258.66 19.8915C258.427 20.1201 258.709 20.3583 258.865 20.5583C258.835 20.6536 258.913 20.7107 258.952 20.7584C258.777 20.8536 258.641 20.8822 258.515 20.806C258.369 20.7203 258.165 20.4726 257.98 20.5964C257.825 20.7012 257.757 20.9775 257.786 21.149C257.815 21.349 258.009 21.5586 258.165 21.692C258.223 21.7396 258.184 21.8158 258.281 21.8539C258.301 22.054 258.622 22.235 258.826 22.4255C258.903 22.4922 259.166 22.5779 259.283 22.5875C259.419 22.6446 259.574 22.7494 259.73 22.8161C259.73 22.8161 259.788 22.8161 259.798 22.8161C259.885 22.8637 259.944 22.9781 260.021 23.0257C260.06 23.0447 260.187 23.0828 260.255 23.1876C260.605 23.2924 261.061 23.6163 261.392 23.7497C261.402 23.7688 261.373 23.7688 261.373 23.8069C261.538 23.8831 261.654 23.7878 261.8 23.8069C261.927 23.683 262.121 23.4544 262.325 23.3686C262.607 23.2639 263.19 23.2639 263.55 23.3877C263.705 23.4449 263.9 23.5592 264.055 23.683C264.25 23.8354 264.279 24.1308 264.298 24.3404C264.298 24.4547 264.337 24.5595 264.279 24.6643C264.191 24.8357 264.075 24.9215 263.987 25.0453C263.91 25.1501 263.812 25.3406 263.667 25.455C263.618 25.4931 263.53 25.5216 263.462 25.5598C263.122 25.7693 262.578 25.8741 262.179 25.7122C261.771 25.5502 261.771 25.3692 261.664 25.0548C261.606 24.8738 261.518 24.6738 261.557 24.4737C261.129 24.2165 260.76 23.8926 260.323 23.6925C260.187 23.6259 259.944 23.5401 259.866 23.3877C259.613 23.302 259.487 23.1686 259.234 23.0733C259.215 23.0543 259.224 23.0447 259.205 23.0066C258.855 22.8352 258.495 22.6827 258.32 22.4541C258.311 22.4827 258.291 22.4541 258.243 22.4636C258.048 22.3017 257.795 22.235 257.65 22.3874C257.611 22.3874 257.562 22.3588 257.533 22.4065C257.552 22.5017 257.504 22.6542 257.543 22.6827C257.465 22.6732 257.513 22.7685 257.416 22.7494C257.377 22.7971 257.455 22.8066 257.416 22.8542C257.377 22.8447 257.339 22.8256 257.319 22.8828C257.329 22.9971 257.445 23.0733 257.513 23.1781C257.513 23.2543 257.504 23.321 257.572 23.3782C257.552 23.4258 257.504 23.3782 257.523 23.4353C257.543 23.4925 257.562 23.4163 257.601 23.4449C257.562 23.664 257.562 23.7688 257.543 23.9974C257.465 24.026 257.436 24.026 257.387 24.1117C257.154 24.1117 256.979 24.1308 256.746 24.1498C256.609 24.3022 256.454 24.4356 256.347 24.6357C256.104 25.093 256.697 25.3121 256.911 25.5979C256.882 25.5598 256.94 25.655 256.94 25.6645C256.969 25.7408 256.911 25.817 256.959 25.8932C256.862 25.998 256.814 26.1504 256.668 26.1695C256.425 26.1885 256.085 25.8456 256.075 25.6741C255.958 25.5883 255.871 25.4073 255.705 25.3025C255.482 25.1596 255.074 25.1787 254.967 25.3025C254.899 25.3787 254.918 25.4931 254.879 25.6074C254.743 25.6074 254.792 25.836 254.918 25.836C254.84 26.0647 255.025 26.2266 254.976 26.4552C254.986 26.4934 255.025 26.4838 255.054 26.5029C254.986 26.5505 255.093 26.6267 255.025 26.7029C255.044 26.7029 255.044 26.722 255.044 26.7315C255.103 26.8363 255.142 26.903 255.268 27.0078C255.482 27.1793 255.569 27.4365 255.744 27.6175C255.744 27.8652 256.123 27.9604 256.396 28.1605C256.425 28.1796 256.425 28.2177 256.454 28.2462C256.58 28.3701 256.755 28.4272 256.852 28.513C256.979 28.6368 257.018 28.7988 257.076 28.9417C257.027 28.9226 256.979 28.894 256.94 28.9417C256.901 29.0084 257.008 29.0465 257.076 29.0846C257.008 29.4275 256.726 29.5323 256.435 29.5037C255.511 29.1417 255.297 28.5225 254.879 27.989C254.889 27.9604 254.85 27.9414 254.879 27.9033C254.714 27.7604 254.714 27.5794 254.549 27.4365C254.432 27.0268 254.15 26.6553 253.956 26.2647C253.81 26.1123 253.489 26.0456 253.421 25.8551C253.198 25.7503 253.139 25.474 252.896 25.3597C252.605 25.2263 252.245 25.1501 251.915 25.0358C251.623 24.9405 251.098 24.9215 250.981 25.2549C250.972 25.2835 250.991 25.3025 250.991 25.3311C250.991 25.3787 250.923 25.4169 250.991 25.4645C250.913 25.5121 250.777 25.4645 250.67 25.5216C250.554 25.655 250.505 25.8074 250.505 25.9313C250.476 25.8837 250.524 25.817 250.456 25.7884C250.369 25.8074 250.359 25.9789 250.456 26.0075C250.524 26.017 250.437 25.9027 250.505 25.9503C250.476 26.0456 250.418 26.1409 250.505 26.2076C250.486 26.2266 250.456 26.1885 250.447 26.2266C250.456 26.2457 250.554 26.2552 250.602 26.2647C250.602 26.3314 250.418 26.2933 250.418 26.2457C250.291 26.3124 250.175 26.379 250.048 26.4648C249.961 26.7982 249.552 27.0078 249.387 27.2936C249.261 27.2936 249.173 27.4079 249.066 27.4841C249.018 27.6937 249.28 27.6842 249.436 27.7032C249.815 27.7509 250.33 27.9128 250.544 28.2843C250.602 28.3796 250.583 28.5035 250.612 28.6083C250.651 28.7702 250.768 28.8655 250.874 29.0179C250.904 29.0179 250.933 29.0084 250.942 29.0369C250.593 28.9512 250.699 29.5133 250.855 29.6276C250.855 29.8277 250.884 30.0087 250.855 30.2087C250.836 30.3421 250.777 30.4659 250.806 30.6184C250.845 30.8565 250.981 30.9994 250.923 31.2852C250.865 31.552 250.826 31.8473 250.787 32.0854C250.787 32.1236 250.748 32.1712 250.748 32.2188C250.729 32.3712 250.768 32.5427 250.738 32.6856C250.709 32.8476 250.573 33.0095 250.583 33.1905C250.729 33.6669 250.991 34.1051 251.244 34.5528C251.04 34.8005 251.613 35.0768 251.399 35.2673C251.399 35.334 251.428 35.3912 251.467 35.4578C253.13 35.2578 254.714 34.8767 256.182 34.2861C258.388 33.3906 260.313 32.1331 261.936 30.5231C263.56 28.9131 264.814 27.0268 265.698 24.8548C266.583 22.6923 267.02 20.3392 267.02 17.7956C267.02 15.252 266.583 12.899 265.698 10.7364C264.814 8.5739 263.56 6.67812 261.936 5.06813L261.868 5.09671ZM234.116 17.767C234.048 17.8813 233.932 18.0433 233.835 18.1386C233.592 18.3863 233.105 18.3672 232.853 18.1481C232.814 18.11 232.814 18.0528 232.775 18.0052C232.726 17.9385 232.59 17.8623 232.561 17.748C232.561 17.7289 232.581 17.6813 232.571 17.6337C232.571 17.5384 232.542 17.3288 232.571 17.2335C232.707 16.9192 233.018 16.7001 233.29 16.6715C233.562 16.6429 233.698 16.6715 233.932 16.8048C234.116 17.1192 234.301 17.405 234.107 17.7575L234.116 17.767ZM234.797 16.681C234.768 16.5095 234.739 16.4524 234.797 16.2809C234.865 16.0999 235.156 15.976 235.293 16.0141C236.061 16.2237 235.331 17.3193 234.787 16.681H234.797ZM237.859 16.6048C237.732 16.6238 237.616 16.6524 237.509 16.7286C237.256 16.7001 236.984 16.7096 236.731 16.5667C236.566 16.4809 236.401 16.2523 236.342 16.0999C236.323 16.0522 236.362 15.9856 236.342 15.9189C236.333 15.8617 236.284 15.8141 236.274 15.7665C236.255 15.6236 236.323 15.3949 236.381 15.2901C236.478 15.1186 236.634 15.0139 236.721 14.8424C236.887 14.7376 237.071 14.6614 237.266 14.6042C237.314 14.5852 237.373 14.5566 237.412 14.5566C237.616 14.5471 237.839 14.6709 238.005 14.7471C238.393 14.9281 238.452 15.2997 238.52 15.5854C238.423 16.0522 238.209 16.3952 237.849 16.6143L237.859 16.6048ZM246.559 10.8317C246.491 10.7745 246.5 10.7079 246.384 10.6697C246.199 10.3458 246.568 9.89809 246.947 10.2029C247.015 10.3268 247.045 10.4602 247.006 10.6031C246.87 10.7269 246.734 10.8317 246.568 10.8317H246.559ZM249.932 4.10595C249.825 4.19169 249.523 4.27742 249.368 4.24884C248.911 4.15358 248.853 3.64867 248.998 3.39145C249.164 3.09613 249.543 3.00087 249.844 3.15329C249.98 3.21998 249.99 3.25808 250.038 3.38193C250.116 3.57246 250.145 3.95352 249.932 4.11547V4.10595ZM251.322 6.79244C251.322 6.65906 251.341 6.52569 251.341 6.40185C251.38 6.33516 251.448 6.34469 251.458 6.25895C251.545 6.23037 251.681 6.25895 251.759 6.32563C251.701 6.55427 251.545 6.8496 251.322 6.79244ZM252.041 6.64954C251.973 6.62096 251.963 6.81149 251.856 6.76386C251.876 6.68764 251.895 6.49711 252.012 6.51617C252.07 6.55427 252.031 6.61143 252.051 6.65906C252.041 6.66859 252.031 6.65906 252.041 6.65906V6.64954ZM254.15 5.28724C254.17 5.44919 253.936 5.68736 253.771 5.76357C253.781 5.56351 253.946 5.24913 254.15 5.28724ZM254.452 11.0413C254.277 11.0603 254.121 11.108 253.927 10.9365C253.927 10.7269 253.791 10.565 253.586 10.4125C253.489 10.1839 253.46 9.94573 253.509 9.67898C253.829 9.22171 254.315 8.8597 254.976 9.36461C255.044 9.52656 255.151 9.64088 255.181 9.7933C255.258 10.2887 254.743 10.7269 254.452 11.0413ZM257.834 6.49711C257.688 6.78291 257.504 7.11634 257.154 7.26876C257.115 7.28782 257.047 7.27829 256.998 7.29734C256.814 7.36403 256.512 7.47835 256.308 7.47835C256.201 7.47835 256.075 7.41166 255.968 7.39261C255.686 7.34498 255.151 7.04965 255.035 6.72575C254.996 6.63048 254.976 6.48759 254.947 6.37327C254.899 6.18274 254.831 5.94457 254.928 5.72546C255.045 5.45872 255.258 5.28724 255.433 5.03002C255.618 4.89665 255.832 4.85854 256.046 4.74423C256.221 4.76328 256.289 4.66801 256.464 4.64896C256.736 4.77281 257.037 4.70612 257.222 4.94428C257.222 4.96334 257.3 4.97286 257.329 4.99192C257.348 5.01097 257.339 5.0205 257.358 5.0586C257.601 5.16339 257.679 5.3825 257.776 5.55398C257.776 5.60162 257.756 5.67783 257.825 5.67783C257.815 5.9541 257.902 6.21132 257.854 6.49711H257.834ZM258.174 13.0514C258.213 12.9561 258.311 13.0038 258.33 12.9371C258.349 12.9942 258.233 13.0514 258.174 13.0514ZM258.243 4.63943C258 4.7347 257.698 4.58227 257.582 4.4108C257.348 4.06784 257.747 3.57246 258.068 3.59151C258.126 3.59151 258.204 3.62962 258.281 3.6582C258.787 3.85826 258.641 4.47748 258.233 4.63943H258.243ZM258.554 5.16339C258.515 5.07766 258.66 4.92523 258.729 4.95381C258.816 5.00144 258.69 5.23008 258.554 5.16339ZM259.778 11.9654C259.71 11.9749 259.633 11.9654 259.574 12.0225C259.555 12.0416 259.574 12.0987 259.555 12.1178C259.438 12.2321 259.263 12.194 259.078 12.2226C259.244 12.032 259.555 12.0035 259.778 11.8987C259.817 11.9082 259.73 11.9558 259.778 11.9654ZM260.021 11.4795C260.021 11.4795 260.099 11.4128 260.148 11.4319C260.119 11.489 260.07 11.489 260.021 11.4795ZM263.871 8.84064C263.53 9.01212 263.219 9.29792 262.831 9.3265C262.811 9.21218 262.957 9.13597 263.035 9.11691C263.054 9.08834 263.035 9.07881 263.054 9.05023C263.394 8.88828 263.744 8.59296 264.094 8.58343C264.094 8.68822 263.89 8.69775 263.861 8.84064H263.871ZM249.475 27.427C249.475 27.427 249.426 27.3793 249.455 27.3507C249.475 27.3603 249.494 27.3698 249.504 27.3507C249.533 27.3698 249.504 27.4174 249.484 27.4174L249.475 27.427ZM250.904 26.8839C250.554 26.8077 250.641 26.5219 250.456 26.3695C250.69 26.2742 250.923 26.6267 250.981 26.8077C250.952 26.8268 250.933 26.8554 250.904 26.8839ZM250.991 25.6836C250.991 25.6836 251.02 25.6931 251.03 25.7027C251.04 25.7027 251.049 25.6931 251.059 25.6836C251.088 25.7122 251.069 25.7408 251.098 25.7693C251.079 25.7693 251.03 25.7027 250.991 25.6836ZM251.117 25.817C251.117 25.817 251.156 25.836 251.176 25.817C251.185 25.836 251.205 25.8551 251.186 25.8932C251.186 25.8646 251.127 25.8551 251.117 25.8265V25.817ZM253.499 28.6464C253.499 28.6464 253.45 28.5797 253.421 28.6368C253.402 28.6559 253.421 28.6654 253.421 28.6845C253.46 28.7226 253.47 28.6464 253.509 28.6845C253.402 28.7512 253.567 28.8083 253.509 28.8845C253.227 28.6368 253.1 28.4082 252.964 28.1319C252.945 28.151 252.955 28.1319 252.964 28.1129C253.13 28.2748 253.353 28.4558 253.509 28.6559L253.499 28.6464ZM252.712 27.7699C252.653 27.789 252.527 27.6937 252.576 27.608C252.634 27.608 252.721 27.7032 252.712 27.7699ZM251.273 25.9503C251.273 25.9503 251.322 26.0361 251.351 26.0456C251.39 26.0742 251.292 26.0932 251.331 26.1028C251.312 26.1028 251.195 25.9789 251.263 25.9503H251.273ZM251.565 26.5791C251.467 26.4362 251.458 26.2457 251.351 26.1123C251.701 26.2838 251.876 26.5696 252.089 26.8554C252.235 27.0459 252.362 27.1697 252.362 27.3698C252.264 27.3698 252.167 27.2555 252.07 27.1888C251.963 26.9316 251.71 26.7982 251.565 26.5696V26.5791ZM252.352 30.7136C252.935 31.1042 253.343 31.6853 253.616 32.1712C253.159 31.7806 252.644 31.2281 252.352 30.7136ZM253.625 28.1319C253.625 28.1319 253.703 28.1796 253.723 28.1986C253.703 28.2367 253.664 28.2367 253.635 28.2367C253.606 28.2081 253.606 28.17 253.635 28.1319H253.625ZM253.703 32.2664C253.868 32.295 254.004 32.5141 254.092 32.638C254.374 32.8285 254.413 33.0762 254.636 33.2382C254.306 33.0667 253.917 32.5999 253.703 32.2664ZM254.607 33.2667C254.675 33.2382 254.733 33.343 254.85 33.3811C254.84 33.4382 254.87 33.4763 254.889 33.524C254.792 33.524 254.675 33.3525 254.607 33.2667ZM255.015 33.6954C255.171 33.7526 255.346 33.7716 255.336 33.9431C255.181 34.0384 255.045 33.8002 255.015 33.6954ZM255.997 30.4945C256.036 30.3707 256.162 30.485 256.172 30.5421C256.133 30.5898 256.026 30.5421 255.997 30.4945ZM258.311 32.5999C258.116 32.6189 257.873 32.3617 257.659 32.1521C257.572 32.0759 257.504 31.9807 257.494 31.8949C257.65 31.8187 257.786 31.9997 257.902 32.0854C258.087 32.2188 258.301 32.3046 258.379 32.4856C258.359 32.5237 258.33 32.5618 258.311 32.5999ZM260.838 26.0456C260.789 26.1313 260.673 26.2266 260.566 26.3028C260.468 26.379 260.352 26.4743 260.264 26.5219C260.002 26.6744 259.545 26.6648 259.292 26.5886C259.156 26.5505 258.933 26.4648 258.816 26.3409C258.777 26.2933 258.719 26.1885 258.66 26.1028C258.534 25.9408 258.408 25.7217 258.476 25.4931C258.524 25.3502 258.651 25.3025 258.641 25.1787C259.098 24.3022 260.274 24.588 260.789 25.3216C260.789 25.5979 260.974 25.7979 260.828 26.0361L260.838 26.0456ZM264.648 18.4339C264.755 18.3196 264.901 18.3386 265.047 18.3672C264.998 18.5292 264.794 18.491 264.648 18.4339Z" fill="white"/>
    <path d="M127.707 19.72L130.681 10.8793L133.598 19.6628L142.978 19.5675L135.921 0.819284H125.899L118.745 19.8152L127.707 19.72Z" fill="white"/>
    <path d="M65.4087 20.3487C65.9239 19.8057 66.4002 19.2246 66.7988 18.5768C67.8583 16.8334 68.3929 14.8233 68.3929 12.5465C68.3929 10.2696 67.8291 8.15473 66.7016 6.39232C65.574 4.62991 63.9896 3.26761 61.9677 2.28637C59.9361 1.30514 57.5644 0.819284 54.8426 0.819284H39.3386V20.6155L65.4185 20.3487H65.4087ZM48.7965 8.58343H53.3846C55.2801 8.58343 56.6506 8.8978 57.4963 9.5075C58.342 10.1267 58.7697 11.108 58.7697 12.4417C58.7697 13.7754 58.342 14.8424 57.4963 15.5473C56.6506 16.2523 55.2801 16.5953 53.3846 16.5953H48.7965V8.58343Z" fill="white"/>
    <path d="M1.39974 31.1042L0 34.8196H9.5163L10.9549 30.6184L1.39974 31.1042Z" fill="white"/>
    <path d="M14.2307 20.8727L17.594 10.8793L20.8892 20.806L30.318 20.7107L22.8333 0.819284H12.8115L5.21987 20.9584L14.2307 20.8727Z" fill="white"/>
    <path d="M23.9608 29.9515L25.623 34.8196H35.6351L33.6229 29.4561L23.9608 29.9515Z" fill="white"/>
    <path d="M179.439 19.196C179.585 18.9864 179.74 18.7959 179.876 18.5768C180.936 16.8334 181.471 14.8233 181.471 12.5465C181.471 10.2696 180.907 8.15473 179.779 6.39232C178.652 4.62991 177.067 3.26761 175.045 2.28637C173.014 1.30514 170.642 0.819284 167.92 0.819284H152.416V19.4723L179.439 19.196ZM161.884 8.58343H166.472C168.367 8.58343 169.738 8.8978 170.584 9.5075C171.429 10.1267 171.857 11.108 171.857 12.4417C171.857 13.7754 171.429 14.8424 170.584 15.5473C169.738 16.2523 168.367 16.5953 166.472 16.5953H161.884V8.58343Z" fill="white"/>
    <path d="M82.2931 20.1772L91.7608 20.082V8.83112H102.278V0.819284H71.7756V8.83112H82.2931V20.1772Z" fill="white"/>
    <path d="M259.526 24.9119C259.594 24.9977 259.739 25.0263 259.808 24.9691C259.769 24.8738 259.584 24.8262 259.526 24.9119Z" fill="white"/>
    <path d="M196.275 19.0245V13.4229L199.677 18.9864L213.529 18.8531L216.863 13.3277V18.815L225.883 18.7197V0.819284H215.22L206.744 15.0805L198.024 0.819284H187.303V19.1198L196.275 19.0245Z" fill="white"/>
    <path d="M39.3288 29.1703V34.8196H48.7965V28.6845L39.3288 29.1703Z" fill="white"/>
    <path d="M249.251 0.0285797C249.251 0.0285797 249.222 0.00952656 249.203 0.00952656C249.164 0.00952656 249.115 0.00952656 249.076 0.00952656C249.115 0.0571593 249.222 0.0952656 249.251 0.0381062V0.0285797Z" fill="white"/>
    <path d="M29.288 65.1521C28.3937 64.59 27.6939 63.8279 27.1884 62.8562C26.683 61.8845 26.4399 60.8271 26.4399 59.6648C26.4399 58.5026 26.6927 57.4737 27.1884 56.5211C27.6842 55.5684 28.384 54.8063 29.288 54.2442C30.1823 53.6821 31.1932 53.3963 32.3111 53.3963C33.0887 53.3963 33.7983 53.5297 34.4301 53.7869C35.062 54.0441 35.6646 54.4633 36.2284 55.0349H36.2576L36.2284 53.6917H39.825V65.6475H36.2284L36.2576 64.2566H36.2284C35.616 64.8568 34.9939 65.295 34.3815 65.5808C33.7691 65.8571 33.0887 66 32.3402 66C31.2127 66 30.192 65.7142 29.2977 65.1521H29.288ZM34.8773 62.5609C35.3633 62.2751 35.7327 61.8845 35.9951 61.3796C36.2576 60.8747 36.3937 60.3126 36.3937 59.6934C36.3937 59.0742 36.2576 58.5121 35.9951 58.0167C35.7327 57.5213 35.3536 57.1307 34.8773 56.845C34.3912 56.5592 33.8469 56.4163 33.2345 56.4163C32.6221 56.4163 32.0681 56.5592 31.5918 56.845C31.1057 57.1307 30.7364 57.5213 30.4836 58.0167C30.2212 58.5121 30.0948 59.0646 30.0948 59.6648C30.0948 60.3031 30.2212 60.8747 30.4642 61.3796C30.7072 61.8845 31.0766 62.2846 31.5529 62.5609C32.0292 62.8467 32.5832 62.9896 33.2151 62.9896C33.8469 62.9896 34.401 62.8467 34.887 62.5609H34.8773Z" fill="white"/>
    <path d="M44.8115 65.6475V53.6917H48.4275L48.3789 54.9111H48.4567C48.9233 54.3585 49.3801 53.9584 49.8273 53.7298C50.2744 53.4916 50.8382 53.3773 51.4992 53.3773C52.0338 53.3773 52.6365 53.5583 53.3169 53.9108L52.3449 57.3118C51.7811 56.9212 51.227 56.7211 50.673 56.7211C49.9439 56.7211 49.3801 56.9878 49.001 57.5118C48.622 58.0453 48.4275 58.8169 48.4275 59.8458V65.638H44.8115V65.6475Z" fill="white"/>
    <path d="M61.2488 65.6475H57.6328V56.8164H55.6887V53.6821H57.6328V49.4523H61.2488V53.6821H63.4164V56.8164H61.2488V65.6475Z" fill="white"/>
    <path d="M79.3871 65.6475H75.7711V56.8164H73.827V53.6821H75.7711V49.4523H79.3871V53.6821H81.5548V56.8164H79.3871V65.6475Z" fill="white"/>
    <path d="M85.2485 65.6475V45.6512H88.8645V52.6723C88.8645 53.3106 88.8451 54.1299 88.8159 55.1397H88.8645C89.3603 54.5681 89.9046 54.1299 90.4975 53.8346C91.0905 53.5297 91.7806 53.3868 92.5777 53.3868C93.9775 53.3868 95.0273 53.825 95.7368 54.692C96.4464 55.5684 96.7964 56.7783 96.7964 58.3216V65.657H93.1804V59.198C93.1804 58.2358 93.0248 57.5404 92.7235 57.0926C92.4125 56.6544 91.9167 56.4353 91.2363 56.4353C90.4392 56.4353 89.8463 56.7021 89.4477 57.226C89.0492 57.75 88.8645 58.6169 88.8645 59.8077V65.6475H85.2485Z" fill="white"/>
    <path d="M103.659 65.1521C102.765 64.59 102.065 63.8279 101.559 62.8562C101.054 61.8845 100.811 60.8271 100.811 59.6648C100.811 58.5026 101.064 57.4737 101.559 56.5211C102.055 55.5684 102.755 54.8063 103.659 54.2442C104.553 53.6821 105.564 53.3963 106.682 53.3963C107.46 53.3963 108.169 53.5297 108.801 53.7869C109.433 54.0441 110.036 54.4633 110.599 55.0349H110.629L110.599 53.6917H114.196V65.6475H110.599L110.629 64.2566H110.599C109.987 64.8568 109.365 65.295 108.752 65.5808C108.14 65.8571 107.46 66 106.711 66C105.584 66 104.563 65.7142 103.669 65.1521H103.659ZM109.248 62.5609C109.734 62.2751 110.104 61.8845 110.366 61.3796C110.629 60.8747 110.765 60.3126 110.765 59.6934C110.765 59.0742 110.629 58.5121 110.366 58.0167C110.104 57.5213 109.725 57.1307 109.248 56.845C108.762 56.5592 108.218 56.4163 107.605 56.4163C106.993 56.4163 106.439 56.5592 105.963 56.845C105.477 57.1307 105.107 57.5213 104.855 58.0167C104.592 58.5121 104.466 59.0646 104.466 59.6648C104.466 60.3031 104.592 60.8747 104.835 61.3796C105.088 61.8845 105.448 62.2846 105.924 62.5609C106.4 62.8467 106.954 62.9896 107.586 62.9896C108.218 62.9896 108.772 62.8467 109.258 62.5609H109.248Z" fill="white"/>
    <path d="M123.469 65.6475H119.853V56.8164H117.909V53.6821H119.853V49.4523H123.469V53.6821H125.637V56.8164H123.469V65.6475Z" fill="white"/>
    <path d="M137.962 65.3807C137.165 64.9711 136.543 64.4567 136.096 63.8374L138.137 61.7607C138.837 62.6943 139.673 63.1515 140.655 63.1515C141.073 63.1515 141.394 63.0658 141.617 62.9038C141.841 62.7419 141.957 62.5037 141.957 62.1989C141.957 61.9893 141.899 61.8083 141.773 61.6463C141.646 61.4939 141.433 61.332 141.141 61.17C140.84 61.0081 140.392 60.808 139.79 60.5603C138.721 60.1507 137.943 59.6743 137.428 59.1218C136.922 58.5693 136.67 57.8548 136.67 56.9974C136.67 56.2448 136.864 55.597 137.253 55.054C137.642 54.5109 138.176 54.0918 138.837 53.806C139.498 53.5202 140.237 53.3773 141.034 53.3773C141.919 53.3773 142.706 53.5202 143.406 53.7965C144.106 54.0727 144.66 54.4443 145.078 54.9206L143.182 57.045C142.93 56.7878 142.628 56.5687 142.259 56.3972C141.889 56.2257 141.53 56.14 141.16 56.14C140.791 56.14 140.538 56.2067 140.354 56.34C140.159 56.4734 140.062 56.6544 140.062 56.8735C140.062 57.0355 140.12 57.1879 140.247 57.3118C140.373 57.4356 140.587 57.588 140.908 57.7404C141.219 57.8929 141.705 58.1025 142.356 58.3597C143.435 58.7693 144.222 59.2552 144.699 59.8172C145.185 60.3793 145.418 61.1128 145.418 62.0083C145.418 62.8276 145.224 63.5326 144.835 64.1232C144.446 64.7139 143.902 65.1807 143.202 65.5046C142.502 65.8285 141.705 65.9904 140.81 65.9904C139.712 65.9904 138.769 65.7904 137.962 65.3807Z" fill="white"/>
    <path d="M151.581 65.1521C150.686 64.59 149.987 63.8279 149.481 62.8562C148.976 61.8845 148.733 60.8271 148.733 59.6648C148.733 58.5026 148.985 57.4737 149.481 56.5211C149.977 55.5684 150.677 54.8063 151.581 54.2442C152.475 53.6821 153.486 53.3963 154.604 53.3963C155.381 53.3963 156.091 53.5297 156.723 53.7869C157.355 54.0441 157.957 54.4633 158.521 55.0349H158.55L158.521 53.6917H162.118V65.6475H158.521L158.55 64.2566H158.521C157.909 64.8568 157.287 65.295 156.674 65.5808C156.062 65.8666 155.381 66 154.633 66C153.505 66 152.485 65.7142 151.59 65.1521H151.581ZM157.17 62.5609C157.656 62.2751 158.025 61.8845 158.288 61.3796C158.55 60.8747 158.686 60.3126 158.686 59.6934C158.686 59.0742 158.55 58.5121 158.288 58.0167C158.025 57.5213 157.646 57.1307 157.17 56.845C156.684 56.5592 156.14 56.4163 155.527 56.4163C154.915 56.4163 154.361 56.5592 153.884 56.845C153.398 57.1307 153.029 57.5213 152.776 58.0167C152.514 58.5121 152.387 59.0646 152.387 59.6648C152.387 60.3031 152.514 60.8747 152.757 61.3796C153 61.8845 153.369 62.2846 153.846 62.5609C154.322 62.8467 154.876 62.9896 155.508 62.9896C156.14 62.9896 156.694 62.8467 157.18 62.5609H157.17Z" fill="white"/>
    <path d="M173.111 65.6475H171.012L165.345 53.6917H169.291L172.081 60.2174L174.851 53.6917H178.817L173.102 65.6475H173.111Z" fill="white"/>
    <path d="M193.417 60.4174H184.688C184.757 61.3129 185.029 62.0274 185.495 62.5418C185.972 63.0658 186.613 63.323 187.43 63.323C188.013 63.323 188.518 63.1801 188.936 62.9038C189.354 62.6276 189.743 62.1989 190.074 61.6082L193.242 62.6371C192.708 63.7327 191.93 64.5615 190.91 65.1331C189.889 65.7047 188.713 65.9904 187.381 65.9904C186.137 65.9904 185.029 65.7332 184.066 65.2188C183.104 64.7044 182.356 63.9803 181.821 63.0277C181.286 62.075 181.024 60.9699 181.024 59.7029C181.024 58.4359 181.286 57.3403 181.821 56.3782C182.356 55.416 183.085 54.6729 184.027 54.1489C184.97 53.625 186.04 53.3678 187.255 53.3678C188.47 53.3678 189.588 53.625 190.521 54.1394C191.454 54.6538 192.163 55.3874 192.669 56.3496C193.174 57.3118 193.417 58.4549 193.417 59.7696V60.4174ZM189.753 58.0929C189.665 57.4451 189.413 56.9402 188.975 56.5782C188.538 56.2162 187.984 56.0447 187.303 56.0447C186.623 56.0447 186.117 56.2353 185.68 56.6068C185.243 56.9783 184.961 57.4832 184.834 58.1025H189.753V58.0929Z" fill="white"/>
    <path d="M198.258 65.3807C197.461 64.9711 196.839 64.4567 196.392 63.8374L198.433 61.7607C199.133 62.6943 199.969 63.1515 200.951 63.1515C201.369 63.1515 201.689 63.0658 201.913 62.9038C202.137 62.7419 202.253 62.5037 202.253 62.1989C202.253 61.9893 202.195 61.8083 202.069 61.6463C201.942 61.4939 201.728 61.332 201.437 61.17C201.135 61.0081 200.688 60.808 200.086 60.5603C199.016 60.1507 198.239 59.6743 197.724 59.1218C197.208 58.5693 196.965 57.8548 196.965 56.9974C196.965 56.2448 197.16 55.597 197.549 55.054C197.937 54.5109 198.472 54.0918 199.133 53.806C199.794 53.5202 200.533 53.3773 201.33 53.3773C202.214 53.3773 203.002 53.5202 203.702 53.7965C204.401 54.0727 204.956 54.4443 205.374 54.9206L203.478 57.045C203.225 56.7878 202.924 56.5687 202.555 56.3972C202.185 56.2257 201.826 56.14 201.456 56.14C201.087 56.14 200.834 56.2067 200.649 56.34C200.455 56.4734 200.358 56.6544 200.358 56.8735C200.358 57.0355 200.416 57.1879 200.542 57.3118C200.669 57.4356 200.883 57.588 201.203 57.7404C201.515 57.8929 202.001 58.1025 202.652 58.3597C203.731 58.7693 204.518 59.2552 204.994 59.8172C205.48 60.3793 205.714 61.1128 205.714 62.0083C205.714 62.8276 205.519 63.5326 205.131 64.1232C204.742 64.7139 204.197 65.1807 203.497 65.5046C202.798 65.8285 202.001 65.9904 201.106 65.9904C200.008 65.9904 199.065 65.7904 198.258 65.3807Z" fill="white"/>
    <path d="M221.461 65.6475H217.845V45.6512H221.461V65.6475Z" fill="white"/>
    <path d="M227.167 50.6146C226.826 50.4336 226.554 50.1859 226.36 49.8715C226.156 49.5571 226.059 49.1951 226.059 48.8045C226.059 48.4139 226.156 48.09 226.34 47.7757C226.535 47.4708 226.797 47.2231 227.138 47.0421C227.478 46.8611 227.847 46.7754 228.246 46.7754C228.644 46.7754 229.043 46.8611 229.383 47.0421C229.723 47.2231 229.995 47.4613 230.19 47.7661C230.394 48.071 230.491 48.4139 230.491 48.8045C230.491 49.1951 230.394 49.5476 230.19 49.8715C229.986 50.1859 229.723 50.4431 229.383 50.6146C229.043 50.7956 228.673 50.8813 228.275 50.8813C227.876 50.8813 227.507 50.7956 227.167 50.6146ZM230.102 65.6475H226.486V53.6917H230.102V65.6475Z" fill="white"/>
    <path d="M241.096 65.6475H238.996L233.329 53.6917H237.276L240.066 60.2174L242.836 53.6917H246.802L241.086 65.6475H241.096Z" fill="white"/>
    <path d="M261.402 60.4174H252.673C252.741 61.3129 253.013 62.0274 253.48 62.5418C253.956 63.0658 254.598 63.323 255.414 63.323C255.998 63.323 256.503 63.1801 256.921 62.9038C257.339 62.6276 257.728 62.1989 258.058 61.6082L261.227 62.6371C260.692 63.7327 259.915 64.5615 258.894 65.1331C257.874 65.7047 256.697 65.9904 255.366 65.9904C254.121 65.9904 253.013 65.7332 252.051 65.2188C251.089 64.7044 250.34 63.9803 249.806 63.0277C249.271 62.075 249.009 60.9699 249.009 59.7029C249.009 58.4359 249.271 57.3403 249.806 56.3782C250.34 55.416 251.069 54.6729 252.012 54.1489C252.955 53.625 254.024 53.3678 255.239 53.3678C256.454 53.3678 257.572 53.625 258.505 54.1394C259.439 54.6538 260.148 55.3874 260.654 56.3496C261.149 57.3118 261.402 58.4549 261.402 59.7696V60.4174ZM257.737 58.0929C257.65 57.4451 257.397 56.9402 256.96 56.5782C256.522 56.2162 255.968 56.0447 255.288 56.0447C254.607 56.0447 254.102 56.2353 253.665 56.6068C253.227 56.9783 252.945 57.4832 252.819 58.1025H257.737V58.0929Z" fill="white"/>
    <path d="M266.243 65.3807C265.446 64.9711 264.824 64.4567 264.377 63.8374L266.418 61.7607C267.118 62.6943 267.954 63.1515 268.935 63.1515C269.353 63.1515 269.674 63.0658 269.898 62.9038C270.121 62.7419 270.238 62.5037 270.238 62.1989C270.238 61.9893 270.18 61.8083 270.053 61.6463C269.927 61.4939 269.713 61.332 269.421 61.17C269.12 61.0081 268.673 60.808 268.07 60.5603C267.001 60.1507 266.223 59.6743 265.708 59.1218C265.193 58.5693 264.95 57.8548 264.95 56.9974C264.95 56.2448 265.144 55.597 265.533 55.054C265.922 54.5109 266.457 54.0918 267.118 53.806C267.779 53.5202 268.517 53.3773 269.314 53.3773C270.199 53.3773 270.986 53.5202 271.686 53.7965C272.386 54.0727 272.94 54.4443 273.358 54.9206L271.463 57.045C271.21 56.7878 270.909 56.5687 270.539 56.3972C270.17 56.2257 269.81 56.14 269.441 56.14C269.071 56.14 268.819 56.2067 268.634 56.34C268.44 56.4734 268.342 56.6544 268.342 56.8735C268.342 57.0355 268.401 57.1879 268.527 57.3118C268.654 57.4356 268.867 57.588 269.188 57.7404C269.499 57.8929 269.985 58.1025 270.636 58.3597C271.715 58.7693 272.503 59.2552 272.979 59.8172C273.465 60.3793 273.698 61.1128 273.698 62.0083C273.698 62.8276 273.504 63.5326 273.115 64.1232C272.726 64.7139 272.182 65.1807 271.482 65.5046C270.782 65.8285 269.985 65.9904 269.091 65.9904C267.993 65.9904 267.05 65.7904 266.243 65.3807Z" fill="white"/>
</svg>
