<svg width="60" height="11" viewBox="0 0 60 11" fill="none" xmlns="http://www.w3.org/2000/svg">
    <path d="M0 10.8531V0.146862H3.99026C5.67113 0.146862 6.94519 0.624166 7.81242 1.57877C8.68453 2.53338 9.12058 3.84045 9.12058 5.5C9.12058 7.15955 8.68453 8.46662 7.81242 9.42123C6.94519 10.3758 5.67113 10.8531 3.99026 10.8531H0ZM2.49208 8.6502H3.86602C5.62485 8.6502 6.50426 7.60013 6.50426 5.5C6.50426 3.39008 5.62485 2.33511 3.86602 2.33511H2.49208V8.6502Z" fill="black"/>
    <path d="M17.9708 10.6108C17.2984 10.8703 16.5676 11 15.7783 11C14.989 11 14.2558 10.8703 13.5786 10.6108C12.9062 10.3465 12.3264 9.97931 11.8392 9.50935C11.3569 9.03449 10.9769 8.45194 10.6991 7.76168C10.4263 7.07143 10.2899 6.31753 10.2899 5.5C10.2899 4.40832 10.5262 3.44393 10.9988 2.60681C11.4714 1.7648 12.1218 1.12105 12.9501 0.675567C13.7832 0.225189 14.7259 0 15.7783 0C16.8307 0 17.771 0.225189 18.5993 0.675567C19.4324 1.12105 20.0853 1.7648 20.5579 2.60681C21.0305 3.44393 21.2667 4.40832 21.2667 5.5C21.2667 6.31753 21.1279 7.07143 20.8502 7.76168C20.5773 8.45194 20.1973 9.03449 19.7101 9.50935C19.2278 9.97931 18.648 10.3465 17.9708 10.6108ZM13.6151 7.84246C14.1803 8.42501 14.9013 8.71629 15.7783 8.71629C16.6553 8.71629 17.3788 8.42501 17.9488 7.84246C18.5189 7.2599 18.8039 6.47908 18.8039 5.5C18.8039 4.52092 18.5189 3.7401 17.9488 3.15754C17.3788 2.57499 16.6553 2.28371 15.7783 2.28371C14.9013 2.28371 14.1803 2.57499 13.6151 3.15754C13.0499 3.7401 12.7674 4.52092 12.7674 5.5C12.7674 6.47908 13.0499 7.2599 13.6151 7.84246Z" fill="black"/>
    <path d="M30.4239 0.146862H32.9086V10.8531H29.9854L25.5932 3.53939V10.8531H23.1084V0.146862H26.0024L30.4239 7.40921V0.146862Z" fill="black"/>
    <path d="M42.7016 10.8531L41.9708 8.76035H37.6078L36.877 10.8531H34.341L38.2582 0.146862H41.3203L45.2375 10.8531H42.7016ZM38.3313 6.68224H41.2473L39.7929 2.48932L38.3313 6.68224Z" fill="black"/>
    <path d="M52.1291 0.146862V2.33511H49.6663V10.8531H47.2034V2.33511H44.7186V0.146862H52.1291Z" fill="black"/>
    <path d="M60 2.33511H56.1705V4.42056H59.5761V6.57944H56.1705V8.6502H60V10.8531H53.6711V0.146862H60V2.33511Z" fill="black"/>
</svg>
