<svg width="202" height="24" viewBox="0 0 202 24" fill="none" xmlns="http://www.w3.org/2000/svg">
    <path d="M158.226 17.1031C158.226 17.1031 158.239 17.1031 158.259 17.1229C158.286 17.0899 158.233 17.0635 158.226 17.1031Z" fill="white"/>
    <path d="M172.161 2.91667C172.161 2.91667 172.187 2.92949 172.193 2.9359C172.219 2.91667 172.232 2.87821 172.193 2.85897C172.174 2.85897 172.154 2.90385 172.161 2.91667Z" fill="white"/>
    <path d="M169.447 6.42949C169.505 6.47436 169.557 6.47436 169.596 6.44872C169.583 6.40385 169.479 6.38462 169.447 6.42949Z" fill="white"/>
    <path d="M158.111 15.4808C158.111 15.4808 158.044 15.4808 158.064 15.5006C158.078 15.4874 158.104 15.5138 158.111 15.4808Z" fill="white"/>
    <path d="M171.941 2.55128C171.992 2.57692 172.044 2.60256 172.077 2.57051C172.051 2.53205 171.973 2.52564 171.941 2.55128Z" fill="white"/>
    <path d="M169.647 6.92949C169.647 6.92949 169.673 6.94872 169.693 6.95513C169.719 6.9359 169.712 6.91667 169.719 6.89103C169.706 6.88462 169.693 6.87821 169.686 6.8718C169.667 6.8718 169.647 6.91667 169.654 6.92949H169.647Z" fill="white"/>
    <path d="M166.836 23.4615C166.661 23.141 166.447 22.8269 166.395 22.468C166.311 22.3205 166.253 22.1667 166.305 21.9872C166.318 21.7692 166.162 21.5833 166.123 21.3654C166.058 21.3013 166.026 21.2244 166.02 21.1474C165.994 21.1346 165.994 21.109 165.968 21.0962C165.961 20.9167 165.858 20.7628 165.767 20.609C165.611 20.5192 165.482 20.3462 165.313 20.1987C165.216 20.109 165.087 20.0385 164.996 19.9551C164.938 19.9038 164.84 19.7692 164.75 19.7821C164.666 19.6346 164.497 19.7244 164.387 19.6795C164.309 19.6474 164.257 19.5577 164.18 19.5064C164.076 19.4423 163.966 19.4423 163.862 19.3654C163.83 19.3333 163.843 19.2821 163.785 19.2564C163.707 19.0321 164.05 18.7885 163.959 18.5256C164.108 18.3654 164.044 18.1603 163.843 18.0513C163.856 17.9423 163.739 17.8013 163.635 17.7885C163.59 17.7756 163.655 17.7308 163.623 17.7115C163.597 17.6859 163.577 17.7115 163.558 17.7244C163.558 17.6731 163.499 17.6474 163.467 17.641C163.415 17.5897 163.396 17.5577 163.325 17.5256C163.357 17.5 163.286 17.5 163.318 17.4744C163.156 17.3974 163.091 17.2308 162.968 17.1218C162.968 17.0577 162.923 17.0064 162.878 16.9551C162.878 16.8526 162.845 16.7564 162.787 16.6667C162.852 16.6154 162.767 16.5385 162.832 16.5128C162.813 16.4936 162.819 16.468 162.787 16.4551C162.832 16.3397 162.826 16.25 162.813 16.1282C162.852 16.0962 162.858 16.0385 162.845 15.9872C162.703 15.8974 162.69 15.7179 162.56 15.6026C162.398 15.5256 162.275 15.5449 162.152 15.6603C162.113 15.6923 162.061 15.7628 162.042 15.8141C162.022 15.859 162.042 15.9103 162.022 15.9615C161.984 16.1154 161.822 16.1987 161.789 16.2949C161.718 16.3141 161.653 16.3654 161.582 16.3974C161.549 16.4872 161.53 16.5192 161.465 16.6154C161.42 16.6346 161.362 16.6346 161.323 16.6859C161.31 16.718 161.349 16.7372 161.323 16.7756C161.251 16.7756 161.271 16.6859 161.251 16.641C161.219 16.5705 161.174 16.5064 161.18 16.4231C161.219 16.3462 161.226 16.2949 161.258 16.2308C161.316 16.2308 161.368 16.218 161.413 16.1923C161.517 16 161.465 15.7372 161.226 15.8846C161.167 15.9167 161.109 15.9679 161.038 16.0064C160.979 16.0385 160.895 16.0641 160.85 16.0962C160.817 16.1154 160.798 16.1795 160.753 16.2051C160.74 16.2115 160.714 16.2051 160.701 16.2115C160.558 16.3077 160.345 16.5064 160.221 16.2949C159.988 16.1859 160.17 15.9744 160.306 15.8462C160.39 15.7628 160.487 15.641 160.571 15.5833C160.591 15.5705 160.623 15.5769 160.655 15.5577C160.688 15.5449 160.714 15.5 160.74 15.4936C160.759 15.4872 160.792 15.5 160.804 15.4936C160.869 15.4679 160.915 15.4231 160.96 15.3974C160.96 15.3846 160.941 15.3718 160.96 15.3782C160.869 15.3013 160.623 15.2308 160.487 15.1282C160.487 15.109 160.481 15.0897 160.506 15.0577C160.26 14.8782 159.865 14.6795 159.587 14.7051C159.561 14.7436 159.489 14.7436 159.496 14.7885C159.256 14.8333 159.088 14.9808 158.848 15.0192C158.738 15.0833 158.634 15.1603 158.511 15.1731C158.433 15.2372 158.356 15.3205 158.265 15.3397C158.252 15.3782 158.233 15.3718 158.22 15.4038C158.2 15.3846 158.194 15.3782 158.174 15.391C158.174 15.4038 158.194 15.4103 158.207 15.4167C158.187 15.5833 158.006 15.7244 157.863 15.8013C157.779 15.8462 157.688 15.9167 157.624 15.859C157.513 15.7628 157.734 15.6538 157.734 15.5577C157.837 15.4038 158.012 15.359 158.168 15.3141C158.343 15.0705 158.595 15.0833 158.783 14.8782C158.945 14.8397 159.042 14.7115 159.178 14.6026C159.237 14.4936 159.308 14.4808 159.36 14.3974C159.36 14.3333 159.347 14.2692 159.301 14.218C159.055 14.1154 158.835 14.0577 158.731 13.8333C158.712 13.7949 158.686 13.6859 158.667 13.6026C158.647 13.5192 158.673 13.4359 158.667 13.3526C158.731 13.2308 158.751 13.1282 158.764 13.0192C158.757 12.9936 158.725 13.0128 158.744 12.9744C158.68 12.9167 158.589 12.8782 158.511 12.8333L153.795 13.0769C153.892 14.3782 154.164 15.609 154.631 16.75C155.22 18.2051 156.056 19.4808 157.138 20.5641C158.22 21.6474 159.502 22.4936 160.973 23.0962C162.443 23.6987 164.07 24 165.838 24C166.292 24 166.732 23.9808 167.166 23.9423C167.05 23.7885 166.913 23.6603 166.849 23.4744L166.836 23.4615ZM155.402 16.7564C155.266 16.8269 155.142 16.9231 155.026 16.9167C154.98 16.9808 154.896 17.0833 154.786 17.0449C154.76 17.0192 154.786 16.9808 154.754 16.9615C154.819 16.8846 154.89 16.8654 154.974 16.8718C155.201 16.6154 155.466 16.4295 155.797 16.4103C155.777 16.4423 155.829 16.4167 155.855 16.4551C155.816 16.6538 155.564 16.6795 155.408 16.7628L155.402 16.7564ZM158.317 17.3397C158.246 17.4038 158.064 17.4295 157.986 17.3974C157.863 17.3397 157.837 17.1923 157.844 17.0897C157.922 16.9423 158.012 16.8462 158.122 16.8141C158.304 16.8205 158.401 16.9551 158.44 17.0833C158.408 17.1667 158.395 17.2692 158.317 17.3397ZM163.402 18.4423C163.363 18.4167 163.383 18.3526 163.422 18.3269C163.448 18.3462 163.441 18.3718 163.448 18.3974C163.435 18.4103 163.415 18.4103 163.402 18.4423ZM165.793 22.7436C165.793 22.7436 165.773 22.7372 165.773 22.7436C165.592 22.5833 165.644 22.3526 165.592 22.1538C165.67 22.1538 165.657 22.2756 165.702 22.3654C165.76 22.4808 165.87 22.5769 165.832 22.7179C165.812 22.7115 165.812 22.7436 165.793 22.7436Z" fill="white"/>
    <path d="M144.531 13.5385V23.4295H150.543V13.2308L144.531 13.5385Z" fill="white"/>
    <path d="M77.7785 16.9744L75.3686 23.4295H81.7109L83.0454 19.4872H91.1174L92.4454 23.4295H99.1181L96.3583 16.0192L77.7785 16.9744Z" fill="white"/>
    <path d="M54.8453 18.1538V23.4295H61.1552V17.8269L54.8453 18.1538Z" fill="white"/>
    <path d="M117.439 14.9359L101.58 15.75V23.4295H107.89V16.3974H110.811L115.398 23.4295H122.472L116.927 15.2436C117.108 15.1474 117.27 15.0385 117.439 14.9359Z" fill="white"/>
    <path d="M124.83 14.5513V23.4295H130.81V14.2436L124.83 14.5513Z" fill="white"/>
    <path d="M133.868 14.0897L137.69 20.4038L141.706 13.6859L133.868 14.0897Z" fill="white"/>
    <path d="M165.942 18.391C165.903 18.4231 165.909 18.4551 165.935 18.4872C165.981 18.4872 165.994 18.4103 165.942 18.391Z" fill="white"/>
    <path d="M156.023 11.8654C156.023 11.8269 155.952 11.7949 155.933 11.8397C155.965 11.8526 156.004 11.891 156.023 11.8654Z" fill="white"/>
    <path d="M37.1855 19.0641L40.0294 23.4295H47.1038L43.9099 18.718L37.1855 19.0641Z" fill="white"/>
    <path d="M156.951 11.1101C156.971 11.0771 156.944 11.0771 156.918 11.0705C156.898 11.0969 156.931 11.1167 156.951 11.1101Z" fill="white"/>
    <path d="M166.415 18.8462C166.24 18.7756 166.078 18.7308 165.935 18.7821C166.091 18.8846 166.292 18.9359 166.415 18.8462Z" fill="white"/>
    <path d="M166.894 20.2244C166.862 20.2949 166.907 20.3654 166.907 20.4359C166.907 20.6346 166.875 20.8462 167.088 20.9679C167.153 20.891 167.056 20.8462 167.024 20.7949C166.946 20.6667 166.965 20.4936 167.004 20.3269C166.991 20.2885 166.952 20.1795 166.894 20.2179V20.2244Z" fill="white"/>
    <path d="M155.79 11.4295C155.732 11.3974 155.674 11.3846 155.628 11.4103C155.661 11.4487 155.751 11.4808 155.79 11.4295Z" fill="white"/>
    <path d="M160.591 13.3397C160.636 13.3397 160.701 13.391 160.733 13.3526C160.681 13.3462 160.623 13.2885 160.591 13.3397Z" fill="white"/>
    <path d="M164.879 10.8846C164.879 10.8846 164.86 10.9295 164.892 10.9359C164.899 10.9231 164.905 10.9103 164.912 10.9038C164.899 10.8974 164.886 10.891 164.879 10.8846Z" fill="white"/>
    <path d="M166.253 2.28205C166.253 2.28205 166.311 2.32692 166.318 2.28205C166.292 2.26282 166.24 2.25641 166.253 2.28205Z" fill="white"/>
    <path d="M158.323 10.0962C158.369 10.1474 158.459 10.1795 158.498 10.1282C158.479 10.0833 158.356 10.0449 158.323 10.0962Z" fill="white"/>
    <path d="M164.861 10.6031C164.861 10.6031 164.834 10.5899 164.828 10.5833C164.801 10.6163 164.854 10.6427 164.861 10.6031Z" fill="white"/>
    <path d="M164.724 10.4231C164.769 10.4359 164.821 10.4744 164.853 10.4359C164.808 10.4167 164.756 10.391 164.724 10.4231Z" fill="white"/>
    <path d="M158.673 10.6923C158.673 10.6923 158.725 10.75 158.757 10.7436C158.783 10.6987 158.699 10.6282 158.673 10.6923Z" fill="white"/>
    <path d="M164.498 7.05886C164.498 7.05886 164.511 7.03907 164.511 7.03247C164.498 7.03247 164.478 7.01267 164.471 7.01927C164.484 7.03247 164.465 7.05226 164.498 7.05886Z" fill="white"/>
    <path d="M164.795 10.5128C164.756 10.5 164.717 10.4872 164.678 10.4936C164.717 10.5064 164.763 10.5385 164.795 10.5128Z" fill="white"/>
    <path d="M175.063 15.9744C175.122 16.0385 175.219 16.0321 175.271 15.9872C175.238 15.9295 175.109 15.9167 175.063 15.9744Z" fill="white"/>
    <path d="M171.545 13.8462C171.545 13.8462 171.591 13.8462 171.617 13.8782C171.636 13.859 171.656 13.8333 171.675 13.7949C171.662 13.7692 171.643 13.7372 171.617 13.7179C171.578 13.7308 171.533 13.8077 171.545 13.8462Z" fill="white"/>
    <path d="M171.455 11.6667C171.494 11.6859 171.526 11.6795 171.558 11.6795C171.597 11.6282 171.623 11.5769 171.617 11.5192C171.526 11.4359 171.461 11.5769 171.455 11.6667Z" fill="white"/>
    <path d="M166.939 22.3654C166.875 22.4103 166.914 22.5064 166.965 22.5192C166.985 22.4615 166.985 22.4038 166.939 22.3654Z" fill="white"/>
    <path d="M172.012 13.4679C172.064 13.5128 172.07 13.6026 172.148 13.609C172.174 13.5321 172.103 13.4808 172.129 13.4038C172.193 13.3782 172.297 13.2628 172.265 13.1859C172.154 13.2244 172.077 13.3462 172.012 13.4679Z" fill="white"/>
    <path d="M175.432 16.4679C175.465 16.5064 175.556 16.5513 175.581 16.4679C175.543 16.4295 175.458 16.3846 175.432 16.4679Z" fill="white"/>
    <path d="M168.054 6.28205C167.905 6.24359 167.762 6.21154 167.633 6.25C167.795 6.33974 167.931 6.34615 168.054 6.28205Z" fill="white"/>
    <path d="M166.032 4.44231C166.084 4.46154 166.136 4.5 166.169 4.46154C166.117 4.44231 166.071 4.42308 166.032 4.44231Z" fill="white"/>
    <path d="M167.497 4.84615C167.535 4.85256 167.587 4.89744 167.62 4.85897C167.574 4.84615 167.529 4.82051 167.497 4.84615Z" fill="white"/>
    <path d="M157.377 5.20513C157.345 5.25641 157.403 5.32692 157.455 5.3141C157.488 5.25641 157.442 5.21795 157.377 5.20513Z" fill="white"/>
    <path d="M157.222 4.41667C157.196 4.35256 157.066 4.3141 157.021 4.36538C157.015 4.44872 157.183 4.5 157.222 4.41667Z" fill="white"/>
    <path d="M167.108 19.5064C167.108 19.5064 167.088 19.5128 167.082 19.5385C167.101 19.5449 167.095 19.5577 167.114 19.5641C167.127 19.5385 167.14 19.5192 167.114 19.5064H167.108Z" fill="white"/>
    <path d="M196.455 15.2436C197.718 14.5833 198.703 13.6731 199.409 12.5C200.115 11.3269 200.471 9.97436 200.471 8.44231C200.471 6.91026 200.095 5.48718 199.344 4.30128C198.592 3.11538 197.536 2.19872 196.189 1.53846C194.835 0.878205 193.254 0.551282 191.44 0.551282H181.107V23.4295H187.417V16.3974H190.339L194.926 23.4295H202L196.455 15.2436ZM193.215 10.4615C192.652 10.9359 191.738 11.1667 190.475 11.1667H187.417V5.77564H190.475C191.738 5.77564 192.652 5.98718 193.215 6.39744C193.779 6.8141 194.064 7.47436 194.064 8.3718C194.064 9.26923 193.779 9.98718 193.215 10.4615Z" fill="white"/>
    <path d="M173.029 10.4368C173.029 10.4368 173.089 10.4236 173.069 10.4038C173.049 10.4038 173.016 10.4038 173.029 10.4368Z" fill="white"/>
    <path d="M172.666 10.0641C172.712 10.0705 172.757 10.0962 172.789 10.0641C172.744 10.0641 172.699 10.0385 172.666 10.0641Z" fill="white"/>
    <path d="M167.918 5.19231C167.866 5.16667 167.82 5.16667 167.782 5.17308C167.808 5.20513 167.892 5.23077 167.918 5.19231Z" fill="white"/>
    <path d="M172.576 12.7436C172.433 12.7436 172.278 12.7051 172.148 12.7564C172.271 12.8269 172.414 12.7628 172.55 12.7949C172.55 12.75 172.621 12.7692 172.582 12.7436H172.576Z" fill="white"/>
    <path d="M173.398 17.2692C173.405 17.3141 173.508 17.3718 173.534 17.3141C173.534 17.2628 173.424 17.2115 173.398 17.2692Z" fill="white"/>
    <path d="M174.526 3.42949C173.437 2.34615 172.161 1.5 170.69 0.897436C169.356 0.352564 167.898 0.0705128 166.324 0.0128205C166.356 0.0961538 166.311 0.166667 166.324 0.25641C166.292 0.307692 166.279 0.307692 166.279 0.358974C166.253 0.397436 166.266 0.314103 166.227 0.307692C166.175 0.339744 166.201 0.403846 166.233 0.416667C166.136 0.49359 165.974 0.596154 165.812 0.532051C165.585 0.442308 165.547 0.205128 165.65 0.0128205C165.65 0.0128205 165.657 0.00641026 165.663 0C163.959 0.0192308 162.385 0.314103 160.96 0.897436C159.489 1.5 158.207 2.34615 157.125 3.42949C157.002 3.55769 156.892 3.69231 156.768 3.82051C156.859 3.82051 156.963 3.83333 157.079 3.86538C157.228 3.90385 157.429 3.98718 157.604 4.12821C157.837 4.30769 157.876 4.6218 157.805 4.90385C157.76 5.0641 157.708 5.15385 157.637 5.29487C157.539 5.48718 157.377 5.71154 157.183 5.83333C156.982 5.85897 156.833 5.98718 156.607 6C156.393 6.01282 156.121 5.89744 155.926 5.76923C155.771 5.66667 155.661 5.52564 155.564 5.39103C155.201 5.97436 154.877 6.58333 154.611 7.23718C154.022 8.69231 153.73 10.2756 153.73 11.9872C153.73 12.1795 153.75 12.3718 153.756 12.5641L158.012 12.5192C158.012 12.5192 157.967 12.4872 157.948 12.4808C157.831 12.4295 157.675 12.4551 157.539 12.4103C157.442 12.3782 157.352 12.3333 157.248 12.3141C157.125 12.2885 157.015 12.3013 156.917 12.2308C156.885 12.141 156.924 12.0705 157.008 12.0128C157.125 11.9679 157.254 12.0641 157.352 12.1154C157.494 12.1923 157.708 12.1603 157.857 12.2372C157.87 12.2436 157.87 12.2564 157.889 12.2628C157.967 12.2949 158.097 12.2821 158.2 12.3205C158.317 12.3654 158.42 12.4423 158.524 12.4808C158.569 12.4936 158.621 12.5064 158.673 12.5128H158.816C158.861 12.5128 158.906 12.5128 158.945 12.4872C159.004 12.3462 159.172 12.2821 159.256 12.2051C159.386 12.2051 159.47 12.0513 159.6 12.0449C159.658 11.9679 159.736 11.9744 159.787 11.8782C159.833 11.8462 159.885 11.8333 159.917 11.7692C159.93 11.7628 159.949 11.7885 159.962 11.7692C159.982 11.7115 159.962 11.6154 160.047 11.6218C160.034 11.5769 160.059 11.5705 160.072 11.5192C160.085 11.4808 160.014 11.4615 160.066 11.4103C159.988 11.2564 159.794 11.1346 159.781 10.9679C159.852 10.7308 160.079 10.7244 160.228 10.8333C160.319 10.8205 160.474 10.8333 160.487 10.7179C160.688 10.7179 160.83 10.5897 161.018 10.5962C161.018 10.5577 160.992 10.609 160.979 10.5833C161.044 10.5641 161.025 10.4679 161.083 10.4167C161.096 10.2949 161.083 10.1154 161.206 10.0577C161.303 10.0128 161.439 10.1026 161.517 10.0128C161.556 9.87821 161.485 9.76923 161.433 9.66026C161.446 9.66026 161.459 9.63462 161.472 9.61539C161.459 9.58974 161.439 9.5641 161.407 9.54487C161.413 9.51282 161.439 9.54487 161.452 9.52564C161.426 9.47436 161.336 9.44872 161.29 9.44872C161.29 9.42308 161.29 9.37179 161.251 9.39103C161.264 9.35256 161.277 9.30769 161.264 9.26282C161.226 9.23718 161.193 9.21795 161.193 9.16667C161.193 9.13462 161.219 9.16667 161.239 9.16667C161.239 9.14744 161.174 9.05769 161.141 9.11539C161.141 9.04487 161.044 8.98718 161.038 8.89744C161.083 8.87821 161.128 8.83974 161.135 8.88462C161.219 8.88462 161.18 8.78205 161.187 8.75641C161.206 8.78205 161.2 8.78846 161.245 8.80128C161.232 8.8141 161.206 8.8141 161.213 8.83974C161.245 8.85256 161.258 8.79487 161.258 8.77564C161.264 8.80769 161.297 8.77564 161.316 8.77564C161.368 8.69231 161.582 8.54487 161.524 8.42949C161.582 8.41026 161.537 8.33333 161.614 8.30769C161.595 8.30128 161.614 8.26282 161.595 8.21795C161.614 8.19872 161.66 8.19872 161.692 8.1859C161.66 8.15385 161.692 8.14103 161.666 8.11538C161.698 8.15385 161.724 8.02564 161.77 8.05128C161.77 8.01923 161.77 8.03205 161.77 7.99359C161.802 8.02564 161.847 7.97436 161.873 7.94872C161.86 7.94872 161.854 7.94872 161.847 7.95513C161.841 7.91667 161.912 7.95513 161.938 7.9359C161.938 7.89744 161.958 7.90385 161.964 7.8718C161.984 7.8782 161.984 7.89103 161.996 7.89744C162.016 7.88462 162.009 7.85256 162.029 7.83974L162.068 7.82692C162.1 7.78205 162.1 7.71795 162.145 7.67308C162.217 7.59615 162.301 7.57051 162.392 7.50641C162.618 7.52564 162.793 7.41667 163.014 7.50641C162.994 7.47436 163.046 7.50641 163.027 7.48077C163.065 7.48077 163.104 7.5 163.143 7.5C163.227 7.4359 163.318 7.39103 163.409 7.42308C163.441 7.42308 163.396 7.38462 163.396 7.38462C163.435 7.35897 163.499 7.38462 163.545 7.42308C163.564 7.41026 163.564 7.38462 163.577 7.42308C163.655 7.40385 163.7 7.36538 163.765 7.35897C163.784 7.38461 163.797 7.36538 163.81 7.39744C163.966 7.41667 164.115 7.41667 164.27 7.44872C164.387 7.51282 164.484 7.51282 164.581 7.46154C164.627 7.49359 164.646 7.46154 164.685 7.47436C164.685 7.45513 164.685 7.44231 164.704 7.44231C164.724 7.44231 164.717 7.49359 164.776 7.49359C164.776 7.50641 164.776 7.52564 164.763 7.53846C164.996 7.6859 165.216 7.45513 165.378 7.33974C165.378 7.27564 165.398 7.25 165.411 7.1859C165.553 7.16667 165.611 6.9359 165.747 6.87821C165.987 6.62821 165.728 6.49359 165.579 6.35256C165.605 6.29487 165.585 6.19231 165.508 6.14103C165.482 6 165.391 5.89744 165.333 5.79487C165.333 5.80128 165.333 5.8141 165.333 5.82051C165.326 5.8141 165.326 5.80128 165.326 5.79487C165.307 5.73718 165.313 5.63462 165.236 5.58333C165.229 5.5 165.268 5.42308 165.223 5.33974C165.268 5.32051 165.268 5.23077 165.255 5.1859C165.307 5.08333 165.346 4.98077 165.313 4.86538C165.333 4.83974 165.372 4.78846 165.359 4.76282C165.573 4.69872 165.76 4.52564 165.974 4.46154C166.013 4.38462 166.032 4.33974 166.091 4.30128C166.136 4.32051 166.156 4.38462 166.194 4.41667C166.557 4.6859 166.803 4.1859 167.114 4.21154C167.147 4.25 167.192 4.28205 167.212 4.34615C167.212 4.36538 167.199 4.37821 167.205 4.39744C167.231 4.46154 167.322 4.5641 167.361 4.64103C167.38 4.67308 167.38 4.73077 167.432 4.75641C167.477 4.78205 167.529 4.75641 167.581 4.77564C167.646 4.74359 167.697 4.67308 167.756 4.6282C167.775 4.6282 167.795 4.61538 167.814 4.58974C167.795 4.58974 167.775 4.61538 167.756 4.6282C167.801 4.71795 167.73 4.8141 167.704 4.89744C167.749 4.98718 167.775 5.10256 167.905 5.10897C168.028 5.1218 168.261 4.91667 168.371 4.76923C168.404 4.73077 168.41 4.67308 168.436 4.63462C168.449 4.61538 168.481 4.60897 168.494 4.58974C168.585 4.48718 168.656 4.36538 168.747 4.32692C168.799 4.42949 168.721 4.54487 168.689 4.65385C168.669 4.65385 168.65 4.64744 168.63 4.65385C168.598 4.69872 168.591 4.73718 168.585 4.77564C168.391 4.92308 168.261 5.04487 168.112 5.22436C168.131 5.35897 168.021 5.47436 167.911 5.51923C167.911 5.50641 167.937 5.46795 167.911 5.44872C167.898 5.51282 167.788 5.60897 167.801 5.70513C167.795 5.70513 167.782 5.69231 167.775 5.69231C167.749 5.75641 167.646 5.87821 167.626 6.01923C167.801 6.05769 167.989 6.12821 168.17 6.21154C168.19 6.22436 168.164 6.25 168.183 6.26282C168.229 6.27564 168.274 6.30128 168.306 6.27564C168.358 6.33974 168.332 6.41026 168.378 6.49359C168.274 6.67949 168.345 6.89744 168.17 7.01923C168.144 7.12821 168.242 7.20513 168.3 7.29487C168.332 7.26923 168.352 7.28205 168.397 7.29487C168.514 7.30769 168.624 7.24359 168.727 7.33974C168.727 7.41026 168.909 7.47436 168.922 7.51923C168.922 7.51923 168.967 7.55128 168.967 7.55769C168.993 7.59615 168.993 7.63462 169.025 7.66026C169.071 7.69231 169.11 7.70513 169.168 7.70513C169.2 7.72436 169.168 7.71154 169.168 7.73718C169.272 7.89744 169.395 8.01282 169.531 8.10897C169.511 8.13462 169.557 8.14744 169.544 8.17308C169.79 8.28205 169.848 8.69872 170.14 8.61538C170.146 8.60897 170.198 8.62179 170.185 8.62821C170.438 8.54487 170.69 8.37179 170.982 8.37179C171.131 8.4359 171.137 8.53846 171.196 8.62821C171.183 8.66026 171.163 8.69231 171.202 8.71154C170.995 9 170.632 8.92308 170.321 8.94872C170.308 9 170.25 9 170.224 9.03846C170.204 9.07051 170.237 9.0641 170.224 9.08974C170.224 9.11539 170.166 9.12821 170.192 9.16026C170.217 9.19231 170.237 9.20513 170.243 9.25641C170.289 9.28205 170.321 9.3141 170.328 9.34615C170.574 9.48718 170.833 9.46795 171.027 9.32692C171.163 9.32692 171.273 9.22436 171.384 9.10256C171.571 9 171.759 8.87821 171.967 8.82692C172.09 8.84615 172.2 8.78205 172.316 8.76282C172.42 8.74359 172.524 8.76282 172.621 8.73077C172.757 8.67949 172.854 8.57692 173.003 8.53846C173.081 8.40385 173.282 8.36538 173.346 8.19872C173.359 8.17308 173.385 8.19231 173.405 8.17308C173.411 8.12179 173.47 8.11538 173.463 8.08974C173.619 8.08974 173.787 7.90385 173.955 7.85256C174.066 7.73077 174.195 7.6859 174.338 7.67949C174.409 7.73718 174.526 7.73077 174.577 7.82692C174.603 7.86538 174.564 7.9359 174.623 7.95513C174.584 7.96795 174.597 8.03846 174.571 8.0641C174.513 8.13462 174.428 8.22436 174.338 8.28846C174.26 8.33974 174.15 8.35897 174.059 8.41667C173.878 8.52564 173.677 8.64744 173.483 8.73077C173.437 8.75 173.353 8.74359 173.346 8.78846C173.275 8.80769 173.172 8.83974 173.139 8.9359C173.107 8.91026 173.12 8.96154 173.107 8.97436C173.107 8.97436 173.107 8.96154 173.094 8.95513C173.081 8.98718 173.068 9.01923 173.068 9.04487C173.048 9.0641 173.068 9.02564 173.048 9.01923C173.01 9.10256 172.867 9.21154 172.783 9.32692C172.686 9.34615 172.543 9.53205 172.576 9.62821C172.614 9.64103 172.634 9.59615 172.673 9.61539C172.517 9.74359 172.563 9.94231 172.718 10.0128C172.835 10.0705 172.977 10.0321 173.074 10.0513C173.087 10.0962 173.178 10.1282 173.191 10.1923C173.191 10.3141 173.087 10.4423 173.029 10.5577C173.01 10.5769 173.029 10.5385 173.01 10.5321C172.776 10.8462 172.517 11.0385 172.18 11.1026C171.941 11.4744 171.533 12.2115 171.973 12.5128C172.18 12.6538 172.589 12.6923 172.796 12.641C172.925 12.6731 173.036 12.6346 173.159 12.6474C173.573 12.5833 173.955 12.391 174.377 12.3397C174.454 12.3782 174.519 12.3846 174.584 12.3654C174.59 12.3718 174.603 12.3718 174.603 12.3654C174.623 12.3718 174.623 12.3846 174.636 12.391C174.811 12.4872 174.979 12.4038 175.141 12.391C175.283 12.3782 175.426 12.3974 175.569 12.4038C175.653 12.4038 175.743 12.3782 175.821 12.4231C175.841 12.4295 175.841 12.3974 175.86 12.3974C175.86 12.4295 175.86 12.4103 175.899 12.4295C175.854 12.5513 175.711 12.5321 175.62 12.5577C175.335 12.6346 175.031 12.7115 174.733 12.7436C174.571 12.8526 174.396 12.9167 174.234 13.0192C173.742 13.0705 173.236 13.0833 172.75 13.1538C172.647 13.2308 172.485 13.2885 172.388 13.3846C172.232 13.5385 172.42 13.6987 172.524 13.8333C172.504 13.8974 172.556 13.9359 172.582 13.9679C172.465 14.0321 172.375 14.0513 172.291 14C172.193 13.9423 172.057 13.7756 171.934 13.859C171.831 13.9295 171.785 14.1154 171.805 14.2308C171.824 14.3654 171.954 14.5064 172.057 14.5962C172.096 14.6282 172.07 14.6795 172.135 14.7051C172.148 14.8397 172.362 14.9615 172.498 15.0897C172.55 15.1346 172.725 15.1923 172.802 15.1987C172.893 15.2372 172.997 15.3077 173.1 15.3526C173.1 15.3526 173.139 15.3526 173.146 15.3526C173.204 15.3846 173.243 15.4615 173.295 15.4936C173.321 15.5064 173.405 15.5321 173.45 15.6026C173.683 15.6731 173.988 15.891 174.208 15.9808C174.215 15.9936 174.195 15.9936 174.195 16.0192C174.305 16.0705 174.383 16.0064 174.48 16.0192C174.564 15.9359 174.694 15.7821 174.83 15.7244C175.018 15.6538 175.407 15.6538 175.646 15.7372C175.75 15.7756 175.879 15.8526 175.983 15.9359C176.113 16.0385 176.132 16.2372 176.145 16.3782C176.145 16.4551 176.171 16.5256 176.132 16.5962C176.074 16.7115 175.996 16.7692 175.938 16.8526C175.886 16.9231 175.821 17.0513 175.724 17.1282C175.692 17.1538 175.633 17.1731 175.588 17.1987C175.361 17.3397 174.998 17.4103 174.733 17.3013C174.461 17.1923 174.461 17.0705 174.389 16.859C174.351 16.7372 174.292 16.6026 174.318 16.4679C174.033 16.2949 173.787 16.0769 173.495 15.9423C173.405 15.8974 173.243 15.8397 173.191 15.7372C173.023 15.6795 172.938 15.5897 172.77 15.5256C172.757 15.5128 172.763 15.5064 172.75 15.4808C172.517 15.3654 172.278 15.2628 172.161 15.109C172.154 15.1282 172.142 15.109 172.109 15.1154C171.98 15.0064 171.811 14.9615 171.714 15.0641C171.688 15.0641 171.656 15.0449 171.636 15.0769C171.649 15.141 171.617 15.2436 171.643 15.2628C171.591 15.2564 171.623 15.3205 171.558 15.3077C171.533 15.3397 171.584 15.3462 171.558 15.3782C171.533 15.3718 171.507 15.359 171.494 15.3974C171.5 15.4744 171.578 15.5256 171.623 15.5962C171.623 15.6474 171.617 15.6923 171.662 15.7308C171.649 15.7628 171.617 15.7308 171.63 15.7692C171.643 15.8077 171.656 15.7564 171.682 15.7756C171.656 15.9231 171.656 15.9936 171.643 16.1474C171.591 16.1667 171.571 16.1667 171.539 16.2244C171.384 16.2244 171.267 16.2372 171.111 16.25C171.021 16.3526 170.917 16.4423 170.846 16.5769C170.684 16.8846 171.079 17.0321 171.222 17.2244C171.202 17.1987 171.241 17.2628 171.241 17.2692C171.26 17.3205 171.222 17.3718 171.254 17.4231C171.189 17.4936 171.157 17.5962 171.06 17.609C170.898 17.6218 170.671 17.391 170.664 17.2756C170.587 17.2179 170.528 17.0962 170.418 17.0256C170.269 16.9295 169.997 16.9423 169.926 17.0256C169.881 17.0769 169.894 17.1538 169.868 17.2308C169.777 17.2308 169.809 17.3846 169.894 17.3846C169.842 17.5385 169.965 17.6474 169.932 17.8013C169.939 17.8269 169.965 17.8205 169.984 17.8333C169.939 17.8654 170.01 17.9167 169.965 17.9679C169.978 17.9679 169.978 17.9808 169.978 17.9872C170.017 18.0577 170.043 18.1026 170.127 18.1731C170.269 18.2885 170.328 18.4615 170.444 18.5833C170.444 18.75 170.697 18.8141 170.878 18.9487C170.898 18.9615 170.898 18.9872 170.917 19.0064C171.001 19.0897 171.118 19.1282 171.183 19.1859C171.267 19.2692 171.293 19.3782 171.332 19.4744C171.299 19.4615 171.267 19.4423 171.241 19.4744C171.215 19.5192 171.286 19.5449 171.332 19.5705C171.286 19.8013 171.098 19.8718 170.904 19.8526C170.289 19.609 170.146 19.1923 169.868 18.8333C169.874 18.8141 169.848 18.8013 169.868 18.7756C169.757 18.6795 169.757 18.5577 169.647 18.4615C169.57 18.1859 169.382 17.9359 169.252 17.6731C169.155 17.5705 168.941 17.5256 168.896 17.3974C168.747 17.3269 168.708 17.141 168.546 17.0641C168.352 16.9744 168.112 16.9231 167.892 16.8462C167.697 16.7821 167.348 16.7692 167.27 16.9936C167.263 17.0128 167.276 17.0256 167.276 17.0449C167.276 17.0769 167.231 17.1026 167.276 17.1346C167.224 17.1667 167.134 17.1346 167.063 17.1731C166.985 17.2628 166.952 17.3654 166.952 17.4487C166.933 17.4167 166.965 17.3718 166.92 17.3526C166.862 17.3654 166.855 17.4808 166.92 17.5C166.965 17.5064 166.907 17.4295 166.952 17.4615C166.933 17.5256 166.894 17.5897 166.952 17.6346C166.939 17.6474 166.92 17.6218 166.914 17.6474C166.92 17.6603 166.985 17.6667 167.017 17.6731C167.017 17.7179 166.894 17.6923 166.894 17.6603C166.81 17.7051 166.732 17.75 166.648 17.8077C166.59 18.0321 166.318 18.1731 166.207 18.3654C166.123 18.3654 166.065 18.4423 165.994 18.4936C165.961 18.6346 166.136 18.6282 166.24 18.641C166.492 18.6731 166.836 18.7821 166.978 19.0321C167.017 19.0962 167.004 19.1795 167.024 19.25C167.05 19.359 167.127 19.4231 167.199 19.5256C167.218 19.5256 167.237 19.5192 167.244 19.5385C167.011 19.4808 167.082 19.859 167.186 19.9359C167.186 20.0705 167.205 20.1923 167.186 20.3269C167.173 20.4167 167.134 20.5 167.153 20.6026C167.179 20.7628 167.27 20.859 167.231 21.0513C167.192 21.2308 167.166 21.4295 167.14 21.5897C167.14 21.6154 167.114 21.6474 167.114 21.6795C167.101 21.7821 167.127 21.8974 167.108 21.9936C167.088 22.1026 166.998 22.2115 167.004 22.3333C167.101 22.6538 167.276 22.9487 167.445 23.25C167.309 23.4167 167.691 23.6026 167.548 23.7308C167.548 23.7756 167.568 23.8141 167.594 23.859C168.702 23.7244 169.757 23.468 170.736 23.0705C172.206 22.468 173.489 21.6218 174.571 20.5385C175.653 19.4551 176.488 18.1859 177.078 16.7244C177.667 15.2692 177.959 13.6859 177.959 11.9744C177.959 10.2628 177.667 8.67949 177.078 7.22436C176.488 5.76923 175.653 4.49359 174.571 3.41026L174.526 3.42949ZM156.03 11.9551C155.985 12.0321 155.907 12.141 155.842 12.2051C155.68 12.3718 155.356 12.359 155.188 12.2115C155.162 12.1859 155.162 12.1474 155.136 12.1154C155.104 12.0705 155.013 12.0192 154.993 11.9423C154.993 11.9295 155.006 11.8974 155 11.8654C155 11.8013 154.98 11.6603 155 11.5962C155.091 11.3846 155.298 11.2372 155.479 11.2179C155.661 11.1987 155.751 11.2179 155.907 11.3077C156.03 11.5192 156.153 11.7115 156.023 11.9487L156.03 11.9551ZM156.483 11.2244C156.464 11.109 156.445 11.0705 156.483 10.9551C156.529 10.8333 156.723 10.75 156.814 10.7756C157.326 10.9167 156.84 11.6538 156.477 11.2244H156.483ZM158.524 11.1731C158.44 11.1859 158.362 11.2051 158.291 11.2564C158.122 11.2372 157.941 11.2436 157.773 11.1474C157.662 11.0897 157.552 10.9359 157.513 10.8333C157.501 10.8013 157.526 10.7564 157.513 10.7115C157.507 10.6731 157.475 10.641 157.468 10.609C157.455 10.5128 157.501 10.359 157.539 10.2885C157.604 10.1731 157.708 10.1026 157.766 9.98718C157.876 9.91667 157.999 9.86539 158.129 9.82692C158.161 9.8141 158.2 9.79487 158.226 9.79487C158.362 9.78846 158.511 9.87179 158.621 9.92308C158.88 10.0449 158.919 10.2949 158.965 10.4872C158.9 10.8013 158.757 11.0321 158.518 11.1795L158.524 11.1731ZM164.322 7.28846C164.277 7.25 164.283 7.20513 164.206 7.17949C164.082 6.96154 164.329 6.66026 164.581 6.86538C164.627 6.94872 164.646 7.03846 164.62 7.13462C164.529 7.21795 164.439 7.28846 164.329 7.28846H164.322ZM166.57 2.76282C166.499 2.82051 166.298 2.87821 166.194 2.85897C165.89 2.79487 165.851 2.45513 165.948 2.28205C166.058 2.08333 166.311 2.01923 166.512 2.12179C166.603 2.16667 166.609 2.19231 166.641 2.27564C166.693 2.40385 166.713 2.66026 166.57 2.76923V2.76282ZM167.497 4.57051C167.497 4.48077 167.51 4.39103 167.51 4.30769C167.535 4.26282 167.581 4.26923 167.587 4.21154C167.646 4.19231 167.736 4.21154 167.788 4.25641C167.749 4.41026 167.646 4.60897 167.497 4.57051ZM167.976 4.47436C167.931 4.45513 167.924 4.58333 167.853 4.55128C167.866 4.5 167.879 4.3718 167.957 4.38462C167.995 4.41026 167.969 4.44872 167.982 4.48077C167.976 4.48718 167.969 4.48077 167.976 4.48077V4.47436ZM169.382 3.55769C169.395 3.66667 169.239 3.82692 169.129 3.87821C169.136 3.74359 169.246 3.53205 169.382 3.55769ZM169.583 7.42949C169.466 7.44231 169.362 7.47436 169.233 7.35897C169.233 7.21795 169.142 7.10897 169.006 7.00641C168.941 6.85256 168.922 6.69231 168.954 6.51282C169.168 6.20513 169.492 5.96154 169.932 6.30128C169.978 6.41026 170.049 6.48718 170.068 6.58974C170.12 6.92308 169.777 7.21795 169.583 7.42949ZM171.837 4.3718C171.74 4.5641 171.617 4.78846 171.384 4.89103C171.358 4.90385 171.312 4.89744 171.28 4.91026C171.157 4.95513 170.956 5.03205 170.82 5.03205C170.749 5.03205 170.664 4.98718 170.593 4.97436C170.405 4.94231 170.049 4.74359 169.971 4.52564C169.945 4.46154 169.932 4.36538 169.913 4.28846C169.881 4.16026 169.835 4 169.9 3.85256C169.978 3.67308 170.12 3.55769 170.237 3.38462C170.36 3.29487 170.502 3.26923 170.645 3.19231C170.762 3.20513 170.807 3.14103 170.924 3.12821C171.105 3.21154 171.306 3.16667 171.429 3.32692C171.429 3.33974 171.481 3.34615 171.5 3.35897C171.513 3.37179 171.507 3.37821 171.52 3.40385C171.682 3.47436 171.733 3.62179 171.798 3.73718C171.798 3.76923 171.785 3.82051 171.831 3.82051C171.824 4.00641 171.882 4.17949 171.85 4.3718H171.837ZM172.064 8.78205C172.09 8.71795 172.154 8.75 172.167 8.70513C172.18 8.74359 172.103 8.78205 172.064 8.78205ZM172.109 3.12179C171.947 3.1859 171.746 3.08333 171.669 2.96795C171.513 2.73718 171.779 2.40385 171.993 2.41667C172.031 2.41667 172.083 2.44231 172.135 2.46154C172.472 2.59615 172.375 3.01282 172.103 3.12179H172.109ZM172.316 3.47436C172.29 3.41667 172.388 3.3141 172.433 3.33333C172.491 3.36538 172.407 3.51923 172.316 3.47436ZM173.133 8.05128C173.087 8.05769 173.036 8.05128 172.997 8.08974C172.984 8.10256 172.997 8.14103 172.984 8.15385C172.906 8.23077 172.789 8.20513 172.666 8.22436C172.776 8.09615 172.984 8.07692 173.133 8.00641C173.159 8.01282 173.1 8.04487 173.133 8.05128ZM173.295 7.72436C173.295 7.72436 173.346 7.67949 173.379 7.69231C173.359 7.73077 173.327 7.73077 173.295 7.72436ZM175.86 5.94872C175.633 6.0641 175.426 6.25641 175.167 6.27564C175.154 6.19872 175.251 6.14744 175.303 6.13461C175.316 6.11538 175.303 6.10897 175.316 6.08974C175.543 5.98077 175.776 5.78205 176.009 5.77564C176.009 5.84615 175.873 5.85256 175.854 5.94872H175.86ZM166.266 18.4551C166.266 18.4551 166.233 18.4231 166.253 18.4038C166.266 18.4103 166.279 18.4167 166.285 18.4038C166.305 18.4167 166.285 18.4487 166.272 18.4487L166.266 18.4551ZM167.218 18.0897C166.985 18.0385 167.043 17.8462 166.92 17.7436C167.075 17.6795 167.231 17.9167 167.27 18.0385C167.25 18.0513 167.237 18.0705 167.218 18.0897ZM167.276 17.2821C167.276 17.2821 167.296 17.2885 167.302 17.2949C167.309 17.2949 167.315 17.2885 167.322 17.2821C167.341 17.3013 167.328 17.3205 167.348 17.3397C167.335 17.3397 167.302 17.2949 167.276 17.2821ZM167.361 17.3718C167.361 17.3718 167.386 17.3846 167.399 17.3718C167.406 17.3846 167.419 17.3974 167.406 17.4231C167.406 17.4038 167.367 17.3974 167.361 17.3782V17.3718ZM168.948 19.2756C168.948 19.2756 168.915 19.2308 168.896 19.2692C168.883 19.2821 168.896 19.2885 168.896 19.3013C168.922 19.3269 168.928 19.2756 168.954 19.3013C168.883 19.3462 168.993 19.3846 168.954 19.4359C168.766 19.2692 168.682 19.1154 168.591 18.9295C168.578 18.9423 168.585 18.9295 168.591 18.9167C168.702 19.0256 168.851 19.1474 168.954 19.2821L168.948 19.2756ZM168.423 18.6859C168.384 18.6987 168.3 18.6346 168.332 18.5769C168.371 18.5769 168.429 18.641 168.423 18.6859ZM167.464 17.4615C167.464 17.4615 167.497 17.5192 167.516 17.5256C167.542 17.5449 167.477 17.5577 167.503 17.5641C167.49 17.5641 167.412 17.4808 167.458 17.4615H167.464ZM167.659 17.8846C167.594 17.7885 167.587 17.6603 167.516 17.5705C167.749 17.6859 167.866 17.8782 168.008 18.0705C168.106 18.1987 168.19 18.2821 168.19 18.4167C168.125 18.4167 168.06 18.3397 167.995 18.2949C167.924 18.1218 167.756 18.0321 167.659 17.8782V17.8846ZM168.183 20.6667C168.572 20.9295 168.844 21.3205 169.025 21.6474C168.721 21.3846 168.378 21.0128 168.183 20.6667ZM169.032 18.9295C169.032 18.9295 169.084 18.9615 169.097 18.9744C169.084 19 169.058 19 169.038 19C169.019 18.9808 169.019 18.9551 169.038 18.9295H169.032ZM169.084 21.7115C169.194 21.7308 169.285 21.8782 169.343 21.9615C169.531 22.0897 169.557 22.2564 169.706 22.3654C169.485 22.25 169.226 21.9359 169.084 21.7115ZM169.686 22.3846C169.732 22.3654 169.77 22.4359 169.848 22.4615C169.842 22.5 169.861 22.5256 169.874 22.5577C169.809 22.5577 169.732 22.4423 169.686 22.3846ZM169.958 22.6731C170.062 22.7115 170.179 22.7244 170.172 22.8397C170.068 22.9038 169.978 22.7436 169.958 22.6731ZM170.613 20.5192C170.639 20.4359 170.723 20.5128 170.729 20.5513C170.703 20.5833 170.632 20.5513 170.613 20.5192ZM172.154 21.9359C172.025 21.9487 171.863 21.7756 171.72 21.6346C171.662 21.5833 171.617 21.5192 171.61 21.4615C171.714 21.4103 171.805 21.5321 171.882 21.5897C172.005 21.6795 172.148 21.7372 172.2 21.859C172.187 21.8846 172.167 21.9103 172.154 21.9359ZM173.839 17.5256C173.806 17.5833 173.729 17.6474 173.657 17.6987C173.593 17.75 173.515 17.8141 173.457 17.8462C173.282 17.9487 172.977 17.9423 172.809 17.891C172.718 17.8654 172.569 17.8077 172.491 17.7244C172.465 17.6923 172.427 17.6218 172.388 17.5641C172.303 17.4551 172.219 17.3077 172.265 17.1538C172.297 17.0577 172.381 17.0256 172.375 16.9423C172.679 16.3526 173.463 16.5449 173.806 17.0385C173.806 17.2244 173.929 17.359 173.832 17.5192L173.839 17.5256ZM176.378 12.4038C176.45 12.3269 176.547 12.3397 176.644 12.359C176.612 12.4679 176.475 12.4423 176.378 12.4038Z" fill="white"/>
    <path d="M85.112 13.2692L87.0943 7.32051L89.0378 13.2308L95.2894 13.1667L90.5861 0.551282H83.907L79.139 13.3333L85.112 13.2692Z" fill="white"/>
    <path d="M43.5925 13.6923C43.9359 13.3269 44.2533 12.9359 44.5189 12.5C45.225 11.3269 45.5813 9.97436 45.5813 8.44231C45.5813 6.91026 45.2056 5.48718 44.4541 4.30128C43.7026 3.11538 42.6467 2.19872 41.2992 1.53846C39.9452 0.878205 38.3645 0.551282 36.5506 0.551282H26.2177V13.8718L43.599 13.6923H43.5925ZM32.5211 5.77564H35.5788C36.8421 5.77564 37.7556 5.98718 38.3192 6.39744C38.8828 6.8141 39.1678 7.47436 39.1678 8.3718C39.1678 9.26923 38.8828 9.98718 38.3192 10.4615C37.7556 10.9359 36.8421 11.1667 35.5788 11.1667H32.5211V5.77564Z" fill="white"/>
    <path d="M0.932876 20.9295L0 23.4295H6.34226L7.30105 20.6026L0.932876 20.9295Z" fill="white"/>
    <path d="M9.48424 14.0449L11.7257 7.32051L13.9219 14L20.2058 13.9359L15.2175 0.551282H8.53841L3.47885 14.1026L9.48424 14.0449Z" fill="white"/>
    <path d="M15.969 20.1538L17.0768 23.4295H23.7495L22.4085 19.8205L15.969 20.1538Z" fill="white"/>
    <path d="M119.59 12.9167C119.687 12.7756 119.79 12.6474 119.881 12.5C120.587 11.3269 120.943 9.97436 120.943 8.44231C120.943 6.91026 120.568 5.48718 119.816 4.30128C119.065 3.11538 118.009 2.19872 116.661 1.53846C115.307 0.878205 113.727 0.551282 111.913 0.551282H101.58V13.1026L119.59 12.9167ZM107.89 5.77564H110.947C112.211 5.77564 113.124 5.98718 113.688 6.39744C114.251 6.8141 114.536 7.47436 114.536 8.3718C114.536 9.26923 114.251 9.98718 113.688 10.4615C113.124 10.9359 112.211 11.1667 110.947 11.1667H107.89V5.77564Z" fill="white"/>
    <path d="M54.8453 13.5769L61.1552 13.5128V5.94231H68.1647V0.551282H47.8358V5.94231H54.8453V13.5769Z" fill="white"/>
    <path d="M172.964 16.7628C173.01 16.8205 173.107 16.8397 173.152 16.8013C173.126 16.7372 173.003 16.7051 172.964 16.7628Z" fill="white"/>
    <path d="M130.81 12.8013V9.03205L133.077 12.7756L142.309 12.6859L144.531 8.96795V12.6603L150.543 12.5962V0.551282H143.436L137.787 10.1474L131.976 0.551282H124.83V12.8654L130.81 12.8013Z" fill="white"/>
    <path d="M26.2112 19.6282V23.4295H32.5211V19.3013L26.2112 19.6282Z" fill="white"/>
    <path d="M166.117 0.0192308C166.117 0.0192308 166.097 0.00641026 166.084 0.00641026C166.058 0.00641026 166.026 0.00641026 166 0.00641026C166.026 0.0384615 166.097 0.0641026 166.117 0.025641V0.0192308Z" fill="white"/>
</svg>
